<?xml version="1.0" encoding="UTF-8"?>
<svg id="Layer_1" data-name="Layer 1" xmlns="http://www.w3.org/2000/svg" viewBox="0 0 324.09 124.06">
  <g>
    <path d="m96.56,85.02l-.99-.59c4.14-6.94,6.33-14.91,6.33-23.03,0-24.83-20.2-45.04-45.04-45.04S11.82,36.56,11.82,61.4c0,7.94,2.09,15.74,6.05,22.57l-1,.58c-4.06-7-6.21-15.01-6.21-23.15,0-25.47,20.72-46.2,46.2-46.2s46.2,20.72,46.2,46.2c0,8.34-2.24,16.51-6.49,23.63Z" fill="#fff"/>
    <path d="m100.56,87.2l-1.66-.98c4.43-7.49,6.77-16.07,6.77-24.82,0-26.92-21.9-48.81-48.81-48.81S8.04,34.48,8.04,61.4c0,8.57,2.25,17,6.51,24.38l-1.67.96c-4.43-7.67-6.77-16.43-6.77-25.34,0-27.98,22.76-50.74,50.74-50.74s50.74,22.76,50.74,50.74c0,9.1-2.44,18.02-7.04,25.8Z" fill="#fff"/>
    <path d="m77.93,94.98l-.56-1.01c7.42-4.14,13.34-10.53,16.65-17.99l1.06.47c-3.42,7.69-9.51,14.27-17.15,18.53Z" fill="#fff"/>
    <path d="m56.8,100.41c-16.65,0-31.63-9.31-38.16-23.71l1.05-.48c6.35,13.99,20.91,23.03,37.11,23.03,7.37,0,14.58-1.88,20.84-5.44l.57,1.01c-6.44,3.66-13.85,5.6-21.41,5.6Z" fill="#fff"/>
    <path d="m17.51,49.16h17.35c.07,0,.12.08.08.14l-14.81,22.59c-.03.05,0,.12.07.12h7.85s5.13.81,6.88-4.18c.01-.04.07-.03.06.01l-.68,5.15H14.83l15.19-22.65s0-.1-.05-.1h-9.08s-3.15.42-4.48,3.5c-.03.08-.15.04-.13-.04l.75-4.15c.04-.23.24-.4.48-.4Z" fill="#fff"/>
    <path d="m58.49,70.64c-.74-1.63-10.04-21.39-10.6-22.57-.01-.02-.04-.02-.05,0l-9.14,20.34s-1.67,3.9-4.32,4.03l-.08.57s3.68.03,5.4-4.14c1.42-3.44,1.79-4.35,1.88-4.56.01-.04.05-.06.09-.06.65-.01,6.03-.04,9.35,1.71,3.5,1.85.22,7.62,10.09,7.07.07,0,.09-.1.02-.13-.62-.25-2.05-.95-2.64-2.26Zm-16.29-7.6l3.93-9.16s.07-.04.08,0l4.26,9.29s0,.02-.01.02l-8.22-.09s-.05-.03-.04-.06Z" fill="#fff"/>
    <g>
      <path d="m65.45,112.77c-.4-1.41-.76-2.7-1.15-4.05-.48.91-.89,1.76-1.37,2.56-.48.81-1.04,1.57-1.93,2.13-.59-2.61-1.67-5.09-.46-7.86-.58.16-1.04.25-1.47.42-.48.19-.68.55-.54,1.1.05.2-.01.49-.14.64-.09.11-.45.16-.56.07-.17-.13-.31-.4-.31-.61,0-.8.51-1.33,1.2-1.57.91-.31,1.86-.5,2.96-.78-1.19,2.5-.44,4.76.21,7.22.4-.63.75-1.12,1.04-1.65.67-1.2,1.23-2.42,1.1-3.87-.05-.53.19-1.11.37-1.64.08-.23.37-.39.69-.55-.4,2.42.35,4.58,1.13,6.74.05,0,.1,0,.12-.02,1.19-1.46,2.01-3.08,2.12-4.99.05-.79-.22-1.49-.64-2.14-.11-.16-.05-.43-.07-.65.27-.02.66-.15.77-.02.28.3.51.7.61,1.1.24,1.01.03,2-.24,2.98-.53,1.84-1.49,3.44-2.77,4.85-.17.19-.38.35-.66.6Z" fill="#fff"/>
      <path d="m23.35,100.19c.72-.56,1.42-1.08,2.1-1.63.41-.33.82-.68,1.2-1.05.13-.13.25-.4.2-.53-.06-.14-.32-.26-.5-.29-.81-.13-1.54.13-2.19.62-.68.51-1.35,1.04-2.08,1.6-.25-.21-.5-.42-.78-.66,1.2-1.1,2.65-1.83,3.77-3.12-.46-.12-.8-.22-1.14-.31.02-.08.03-.15.05-.23.67-.06,1.35-.07,1.98.27.3.16.33.46.13.73-.16.21-.36.39-.6.65.2.02.35.04.5.04.23,0,.46,0,.68,0,1.4.06,1.67.51,1.01,1.78.45,0,.87,0,1.29,0,.46.01.95,0,1.16.53.22.52-.05.95-.41,1.27-.73.66-1.51,1.28-2.27,1.9-.19.15-.42.25-.63.37.06.09.13.18.19.27h1.24c.02.05.04.11.06.16-.13.09-.25.24-.38.26-.51.05-1.03.1-1.53.06-.65-.06-.86-.61-.42-1.1.36-.41.8-.76,1.22-1.11.48-.41.99-.77,1.45-1.2.17-.16.23-.44.34-.66-.23-.1-.49-.32-.7-.27-.64.14-1.3.28-1.86.59-.61.33-1.13.83-1.67,1.27-.69.56-.69.56-1.4-.2Z" fill="#fff"/>
      <path d="m23.85,88.24c-.41-.34-.73-.63-1.08-.87-.38-.26-.75-.28-1.1.14-.14.16-.45.24-.68.24-.13,0-.39-.27-.37-.34.07-.24.21-.51.4-.65.48-.35,1.05-.38,1.56-.09.38.2.76.46,1.02.79,1.1,1.4,2.16,2.84,3.23,4.25-.65.63-1.45.92-1.73.64q.8-.92.07-2c-.24-.36-.51-.7-.79-1.08-.99.56-1.93,1.09-2.93,1.65.52.7,1,1.35,1.52,2.05-.16.11-.32.22-.5.34-.42-.6-.82-1.17-1.21-1.75-.19-.28-.36-.36-.7-.19-.87.45-1.77.86-2.73,1.32.48.72.91,1.46,1.42,2.13.4.52.94.83,1.65.52.12-.05.33.08.49.13-.06.15-.07.33-.17.44-.62.65-1.53.61-2.08-.1-.4-.53-.77-1.09-1.13-1.64-.64-.99-1.27-1.99-1.97-3.09.27.12.49.18.66.3.33.25.66.27,1.01.08,1.94-1,3.87-2.01,5.81-3.02.05-.03.1-.06.33-.2Z" fill="#fff"/>
      <path d="m32.1,101.37c.61,0,1.18-.07,1.72.02.82.13,1.14.72.94,1.51-.4,1.56-2.54,3.01-4.14,2.8-.28-.04-.56-.13-.81-.26-1-.5-1.24-1.35-.57-2.25.67-.9,1.39-1.76,2.14-2.59.73-.8,1.48-1.58,2.31-2.27.79-.65,1.76-.77,2.75-.48.16.05.33.11.47.2.3.21.54.5.28.86-.25.35-.57.18-.84-.03-1.17-.88-1.29-.87-2.29.25-.67.75-1.33,1.51-1.96,2.23Zm.64.46c-1.1,0-2.63,1.35-2.78,2.44-.08.6.39,1.03,1.03.94.93-.13,2.35-1.47,2.55-2.4.14-.66-.13-.99-.8-.98Z" fill="#fff"/>
      <path d="m85.59,103.44c.15-.36.29-.73.48-1.2.1.15.25.27.23.33-.17.54-.3,1.11-.58,1.59-.33.57-.76.55-1.09-.01-.27-.45-.45-.96-.65-1.45-.25-.6-.46-1.21-.72-1.8-.08-.17-.3-.4-.43-.38-.18.02-.41.21-.49.39-.35.77-.48,1.57-.14,2.37.26.61.5,1.24.83,1.81.28.5.24.83-.3,1.05-.09.03-.16.1-.3.18-.66-1.47-1.3-2.91-1.95-4.35h-.14c-.15.33-.3.67-.5,1.12-.1-.15-.28-.3-.25-.37.23-.59.45-1.2.77-1.74.23-.38.57-.32.8.08.15.26.29.52.44.81.2-.63.36-1.25.59-1.83.16-.4.39-.8.93-.8.54,0,.76.42.92.81.35.86.65,1.74.98,2.61.1.26.45.73.54.79,0,0,.02,0,.02,0Z" fill="#fff"/>
      <path d="m44.75,105.76c-.88,1.53-1.68,2.93-2.48,4.33-.04.07.03.16.11.14.29-.08.83-.24,1.25-.36-.07.19-.08.41-.17.45-.56.22-1.12.48-1.71.57-.71.11-.92-.26-.58-.92.07-.13.15-.26.28-.5-.23.1-.37.16-.52.22-.41.15-.81.34-1.23.43-.92.21-1.48-.32-1.36-1.26.14-1.02.74-1.79,1.51-2.4,1.15-.91,2.41-1.44,3.9-.76.1.05.26-.12.36-.12.19,0,.42.11.64.19Zm-1.59.57c-.98-.54-1.87-.29-2.47.38-.4.45-.66.77-.94,1.3-.22.42-.35.95.1,1.31.56.22.87.05,1.26-.18,1.08-.63,1.51-1.74,2.05-2.81Z" fill="#fff"/>
      <path d="m76.77,108.41c.19-.25.34-.42.46-.61.11-.17.2-.36.37-.68.09.25.21.42.17.5-.26.52-.5,1.07-.86,1.52-.44.55-.93.46-1.13-.22-.46-1.54-.86-3.11-1.26-4.67-.17-.66-.32-1.33-.42-2-.15-1.03.11-1.98.79-2.75.25-.28.62-.53.98-.65.19-.06.46.12.53.31s.06.35-.21.56c-.11.09-.33.14-.49.19-.8.23-1.03.47-.85,1.26.53,2.29,1.12,4.57,1.69,6.85.03.1.11.19.23.39Z" fill="#fff"/>
      <path d="m53.59,111.98c-.79.62-1.64,1.11-2.69,1.05-.67-.04-1.09-.41-1.22-1.07-.28-1.44,1.13-4.26,3.2-4.44.67-.06,1.2.12,1.39.54.2.45.06,1.21-.46,1.53-.7.42-1.48.77-2.26,1.02-.5.16-.79.3-.69.87.09.52.46.87,1.01.77.49-.1,1.64-.64,1.74-.69.05.03.07.36-.01.43Zm-2.62-1.78c.66-.15,1.44-.28,1.92-.8.35-.38.39-.92.11-1.18-.29-.26-1,.03-1.3.48-.35.53-.55.87-.73,1.5Z" fill="#fff"/>
      <path d="m79.92,106.97c.29-.51.5-.88.77-1.34.09.17.21.3.18.36-.27.58-.5,1.19-.86,1.71-.31.45-.73.39-.97-.13-.35-.76-.66-1.53-.92-2.32-.48-1.44-.92-2.89-1.36-4.34-.21-.7-.18-1.41.18-2.05.23-.4.54-.78.9-1.07.2-.16.6-.4.84-.25.22.14.2.36.15.48-.11.22-.41.42-.66.51-.8.28-1.02.58-.77,1.36.71,2.18,1.46,4.35,2.2,6.52.05.15.16.28.32.56Z" fill="#fff"/>
      <path d="m89.67,98.83s-.08-.07-.1-.04c-.03.04-.11.27-.15.36-.2.51-.34,1.05-.62,1.5-.27.43-.72.42-1.15.14-.44-.29-.44-.59-.2-1.05.32-.64.6-1.32.73-2.01.17-.86-.24-1.54-.82-1.68-.59-.15-1.28.31-1.61,1.08,0,.02-.02.03-.03.05-.54,1.32.07,3.71,1.18,4.61.69.56,1.35.54,1.97-.1.68-.71.9-1.61.94-2.56,0-.1-.07-.21-.14-.31Zm-2.75.93s-.03,0-.04,0h0c-.09,0-.18-.03-.23-.1-.43-.55-1.02-2.11-.09-2.67.03-.02.06-.03.09-.03.98-.14,1.18,1.91.39,2.72-.04.04-.08.06-.13.07Z" fill="#fff"/>
      <path d="m73.98,108.74c.07-.06.18-.03.2.06.02.08.02.17,0,.21-.41.8-.9,1.55-1.73,1.98-.91.46-1.72.19-2.08-.77-.55-1.46-.39-2.9.46-4.2.26-.4.74-.72,1.18-.93.67-.32,1.33.07,1.35.8.01.5-.14,1.06-.41,1.48-.32.5-.8.92-1.27,1.29-.39.32-.53.59-.22,1.03.3.43.75.62,1.18.34.39-.25.69-.63,1.02-.97.07-.08.22-.22.34-.33Zm-2.93-.34c.02.08.12.11.19.06.49-.4,1.01-.84,1.2-1.49.13-.47-.09-.97-.45-1.04-.45-.05-.7.25-.86.64-.22.53-.22,1.28-.08,1.82Z" fill="#fff"/>
      <path d="m90.52,92.45c.14,0,.3.12.38.28.07.14.06.32-.03.45-.08.12-.28.18-.48.14-.52-.09-.94.15-1.05.62-.1.44.17.81.73.89.49.07.98.05,1.48.07,1.53.06,2.2,1.19,1.44,2.5-.27.47-.7.82-1.14,1.16-.17.13-.57.15-.81.1-.34-.07-.56-.37-.43-.7s.48-.37.76-.18c.44.3.8.11,1.02-.24.17-.28.31-.71.22-.98-.08-.24-.49-.45-.79-.52-.48-.1-.98-.06-1.47-.11-1.45-.15-2-1.23-1.28-2.52.3-.54.88-.96,1.47-.96Z" fill="#fff"/>
      <path d="m33.91,107.68c.98-1.38,1.94-2.71,2.9-4.05-.32.02-.65.12-.97.13-.12,0-.4-.32-.13-.38.5-.09,1.01-.2,1.51-.2.59,0,.74.28.51.81-.11.26-.26.5-.47.88.49-.25.86-.48,1.25-.62.36-.13.77-.24,1.14-.19.38.05.48.43.45.62-.05.37-.4.53-.79.4-1.01-.35-2.02-.09-2.77.79-.42.49-.8,1.01-1.18,1.53-.57.79-.56.8-1.46.27Z" fill="#fff"/>
      <path d="m93.18,92.28c-.96-.04-1.45-.43-1.54-1.26-.11-.95.47-1.95,1.26-2.13.19-.04.44-.06.62.13.09.09.15.29.08.49-.12.25-.39.22-.57.19-.53-.08-.89.25-.94.71-.05.43.29.79.84.8.55.01,1.1-.07,1.65-.07,1.4.02,2.08,1.09,1.51,2.38-.28.62-.68,1.17-1.37,1.36-.24.06-.61.04-.8-.22-.1-.18-.08-.37.02-.55.09-.16.39-.19.53-.13.45.19.82.09,1.02-.32.14-.28.26-.7.15-.94-.11-.24-.51-.39-.82-.48-.28-.08-1.4.02-1.65.01Z" fill="#fff"/>
      <path d="m48.27,111.04c-.06.15-.08.38-.2.45-.72.41-1.48.7-2.33.62-.75-.07-1.17-.48-1.29-1.21-.28-1.72,1.91-4.61,4.14-4.14.29.06.59.18.83.35.32.22.34.6.07.83-.14.12-.56.09-.72-.04-1.14-.92-1.94-.79-2.57.57-.28.59-.49,1.25-.55,1.89-.09.94.54,1.37,1.43,1.06.35-.12.69-.31,1.03-.46.05.03.1.05.15.08Z" fill="#fff"/>
    </g>
    <g>
      <path d="m47.92,47.96c.53,1.13,1.01,2.12,1.48,3.12,2.02,4.29,6.53,14.8,9.68,19.66,1.26,1.95,2.04,2.01,2.31,2.06.02,0,.02.02,0,.03-.4.06-2.28.08-3.25-.01-2.67-.24-4.32-1.77-5.25-4.21-.14-.36-.33-.69-.44-1.05-.33-1.07-1.08-1.68-2.09-2.1-2.67-1.11-5.46-1.51-8.32-1.4-.18,0-.42.23-.5.42-.69,1.51-1.36,3.02-2.01,4.54-.72,1.69-1.83,2.99-3.6,3.61-.57.2-1.19.34-1.78.34-6.27.02-12.54,0-18.8,0-.13,0-.25-.01-.56-.03,5.07-7.61,10.08-15.12,15.12-22.69-.23-.02-.39-.04-.55-.04-2.36,0-4.73-.06-7.09.02-1.01.04-2.04.27-2.99.6-1.3.46-2.15,1.46-2.57,2.8-.06.18-.1.37-.19.54-.04.07-.43-.04-.42-.11.28-1.51.55-3.03.88-4.53.06-.32.41-.31.69-.31,2.71-.03,5.41-.03,8.12-.03,2.88,0,5.75,0,8.63,0,.16,0,.33.02.71.04-5.04,7.64-10.01,15.15-15,22.71.22.01.38.03.54.03,2.76,0,5.53,0,8.29,0,1.14,0,2.23-.24,3.24-.8,1.31-.73,2.66-3.63,2.75-3.81.09.03.18.06.26.09-.23,1.6-.47,3.2-.73,4.99.6-.29,1.11-.48,1.55-.77,1.33-.89,2.13-2.21,2.77-3.63,2.11-4.69,4.2-9.38,6.31-14.07.82-1.82,2.68-5.73,2.83-5.99Zm-5.75,15.05h8.21c-1.38-3.04-2.72-6.01-4.12-9.11-1.4,3.12-2.73,6.09-4.08,9.11Z" fill="#fff"/>
      <path d="m78.97,49.29c.43-2.29.45-4.5.03-6.76-2.2.54-4.17,1.45-5.96,2.83-.94-2.14-2-4.1-3.76-5.64-1.75,1.52-2.76,3.48-3.66,5.59-1.82-1.4-3.75-2.37-5.95-2.89-.44,2.54-.39,5,.15,7.52-2.68-1.1-5.36-1.39-8.16-.86.25,1.69,1.03,3.71,2.11,5.44,1.71,2.75,4.04,4.7,7.15,5.74,4.17,1.39,8.81-.5,10.88-3.43,2.16-3.05,2.58-6.4,1.68-9.96-.1-.4-.03-.61.29-.85,1.23-.92,2.57-1.63,4.01-2.14.13-.05.28-.05.43-.08.29,1.92.11,3.77-.25,5.61-.04.2-.25.43-.44.53-1.59.8-2.64,2.07-3.39,3.65-.94,1.99-1.92,3.96-2.9,5.93-.12.25-.25.5-.37.75.33.29,1,.38,1.47.41,0,0,0,0,0,0,.04,0,.08,0,.11,0,.02,0,.04,0,.06,0,.02,0,.04,0,.06,0,.11,0,.24,0,.37,0,.67-.02,1.59-.13,2.6-.49,3.49-1.16,6.27-3.37,7.93-6.75.67-1.37,1.22-2.77,1.5-4.31-2.01-.42-3.96-.35-6,.17Zm-12.45-3.62c.7-1.65,1.54-3.22,2.8-4.69.57.82,1.13,1.56,1.61,2.35.44.73.8,1.51,1.14,2.29.08.17.03.48-.09.63-.88,1.09-1.79,2.16-2.71,3.25.04.04-.04-.01-.07-.08-.66-1.21-1.48-2.3-2.5-3.24-.12-.11-.23-.39-.18-.52Zm-13.67,4.12c.88,0,1.75-.05,2.61.01,1.45.11,2.85.4,3.85,1.58.39.46.73.98,1.01,1.52,1.11,2.19,2.2,4.39,3.29,6.59.03.06.04.14.06.21-4.97.08-9.74-4.71-10.82-9.92Zm15.42,8.81c-.42-.13-.87-.23-1.27-.41-2.05-.95-3.43-2.53-4.33-4.58-.43-.97-1.02-1.86-1.49-2.81-.23-.47-.36-.99-.48-1.51-.38-1.69-.43-3.39-.29-5.11.01-.15.05-.29.1-.52,1.76.5,3.24,1.38,4.58,2.49.12.1.11.45.06.66-.66,2.41-.59,4.78.28,7.12.51,1.39,1.27,2.64,2.25,3.75.22.25.45.51.67.77-.05.07-.04.07-.09.14Zm1.53-1.01c-.32.3-.55.37-.89.02-2.86-2.96-3.83-6.44-2.86-10.44,0-.03.05-.05.11-.12,1.43,1.25,2.24,2.93,3.2,4.66.91-1.71,1.73-3.33,3.23-4.68.13.84.28,1.54.33,2.25.22,3.24-.77,6.03-3.12,8.3Zm7.6-6.41c-.57,2.21-1.69,4.06-3.59,5.4.96-1.96,1.53-4.16,3.59-5.4Zm-5.22,8.6l.61-1.28c.08-.17.2-.32.36-.43.59-.39,2.11-1.42,2.81-2.13,1.34-1.36,2.08-3.08,2.56-4.9.13-.51.4-.75.89-.89,1.34-.38,2.7-.43,4.07-.35.11,0,.24.01.34.01-.75,6.42-8.74,10.59-11.64,9.97Z" fill="#fff"/>
      <path d="m71.78,60.59l-.93-.36c-.08.17-.16.33-.25.5-.31.62-.64,1.22-1.02,1.92-.35-.75-.65-1.38-.92-1.95-1.28.34-2.52.67-3.8,1.01.05.11.12.28.2.44.59,1.07.82,2.31.89,3.52.06,1.07.06,7.21.06,7.21h4.07s-.01-4.32-.05-6.49c-.04-1.85,1.75-5.81,1.75-5.81" fill="#fff"/>
      <path d="m100.7,71.81c-.07.18-.11.41-.3.49-.11.05-.23.03-.34,0-.31-.07-.59-.24-.83-.45s-.44-.46-.62-.72c-.53-.75-.9-1.58-1.3-2.41-.44-.92-.88-1.85-1.32-2.77s-.88-1.85-1.32-2.77-.88-1.85-1.32-2.77-.88-1.85-1.32-2.77-.88-1.85-1.32-2.78-.88-1.85-1.32-2.78-.88-1.85-1.32-2.77c-.04-.08-.07-.16-.11-.24-.17-.35-.36-.68-.61-1.14-.17.34-.28.55-.39.77-1.91,4.15-3.82,8.3-5.72,12.45-1.14,2.49-2.23,5.01-3.38,7.5-.89,1.93-2.22,3.41-4.37,3.96-.11.03-.19.15-.4.32.3.03.42.05.55.05,2.11-.06,3.72-1.03,4.68-2.86.97-1.85,1.76-3.8,2.61-5.71.15-.35.33-.5.72-.48,1.06.07,2.13.04,3.19.16,2.14.23,4.19.8,6.04,1.93.35.21.65.59.83.96.51,1,.9,2.06,1.42,3.05.78,1.47,2.06,2.33,3.69,2.61.99.17,2,.22,3,.28.2.01.41.03.61.04.09-.38.18-.77.27-1.15Zm-19.07-8.87c1.36-3.02,2.69-5.97,4.08-9.04,1.42,3.06,2.8,6.01,4.2,9.04h-8.28Z" fill="#fff"/>
    </g>
  </g>
  <g>
    <path d="m126.58,86.26c-.07-.82-.1-1.73-.1-2.73,1.48-2.12,4.65-6.33,9.5-12.65l2.08-2.67c.39-.43.93-1.15,1.64-2.15,1.05-1.5,2.42-3.31,4.12-5.42s3.87-5,6.51-8.67c1.12-1.53,2.02-2.73,2.7-3.62.98-1.23,1.66-2.14,2.05-2.73h-.85l-2.97-.03c-2.55,0-5.63.17-9.24.5s-6.03.72-7.26,1.18c-.93.34-1.73.82-2.39,1.44-1.3,1.19-2.2,2.17-2.7,2.94-.18.27-.35.54-.51.79-.89.11-1.39.17-1.5.17-.21,0-.49-.04-.85-.14.14-.89,1.14-4.86,3.01-11.93l2.05-.14c.73,1.62,1.22,2.52,1.47,2.7.48.34,1.33.51,2.56.51.23,0,.43-.01.62-.03h.24c1.82-.14,6.22-.36,13.19-.68,4.44-.21,7.9-.31,10.36-.31l2.56.07,4.38-.03c.05.5.08.97.1,1.4-.09.3-.89,1.45-2.39,3.45-1.05,1.39-1.88,2.53-2.5,3.42l-1.57,2.26-.1.14-9.54,12.51-7.35,9.81c-2.05,2.69-3.78,5.05-5.2,7.08,1.41.25,3.19.38,5.33.38h2.32l1.47.07c2.76,0,4.99-.14,6.7-.41s3.15-.72,4.32-1.33c1.17-.62,2.24-1.4,3.21-2.36.97-.96,2.27-2.68,3.91-5.16.75-.07,1.28-.1,1.57-.1h.85l-.62,7.31v.31c0,.46-.16,2.15-.48,5.09l-13.71-.41c-1.16-.02-2.07-.03-2.73-.03h-3.96l-3.86-.03h-.72l-9.37.27c-.84.07-1.57.1-2.19.1-.55,0-1.15-.01-1.81-.03-.91-.04-1.7-.07-2.36-.07Z" fill="#fff"/>
    <path d="m170.7,86.36l.07-2.32c.43-.14,1.2-.31,2.29-.51,1.75-.34,2.82-.65,3.2-.92s.84-.93,1.38-1.98l6.9-18.07,8.1-21.24h3.72l.31.62,5.94,14.08c1.34,2.99,2.55,5.88,3.62,8.7,1.07,2.82,1.99,5.11,2.77,6.89.46,1.07,1.08,2.68,1.88,4.82.41,1.16,1.04,2.62,1.88,4.38.46.96.8,1.52,1.03,1.67.41.34,1.08.57,2,.68.92.11,1.92.38,2.99.79.11.75.17,1.31.17,1.67,0,.16-.01.41-.03.75-1.69,0-3.54-.08-5.57-.24-2.03-.16-3.85-.24-5.47-.24-1.8,0-3.1.02-3.9.07l-5.81.31-1.67.07c0-.8.03-1.56.1-2.29l3.79-.82c1.14-.3,1.8-.52,1.98-.68.23-.23.34-.49.34-.79s-.06-.6-.17-.92l-1.36-3.35-2.68-6.7-13.05-.03c-.48,1.09-1.49,3.77-3.01,8.03-.43,1.21-.65,2.03-.65,2.46,0,.59.16,1.01.48,1.26.52.43,1.53.74,3.01.92.21.05,1.01.17,2.43.38.02.82.03,1.39.03,1.71,0,.25-.02.51-.07.79-1.41,0-4.79-.19-10.12-.58l-1.4.24c-1.69.27-3.29.41-4.82.41h-.62Zm16.08-19.21c5.33.07,8.47.1,9.42.1l.85-.03c-.68-2.03-1.57-4.39-2.67-7.09-1.09-2.7-1.98-4.76-2.67-6.17l-4.94,13.19Z" fill="#fff"/>
    <path d="m215.65,42.37c.62-.18,2.04-.27,4.27-.27l.34.07c.57.09.97.14,1.2.14l.34-.03c.34.05,1.28.13,2.8.24,2.83.21,5.07.31,6.73.31,1.82,0,3.61-.12,5.37-.38.25-.04.43-.07.55-.07l.27.03c.11.3.17.52.17.68l-.03,1.78c-.52.21-1.15.37-1.88.48l-1.54.27c-.57.11-1.33.24-2.29.38l-.21.14-.07.44c.75,1.62,2.35,4.13,4.79,7.55.64,1.09,1.28,2.12,1.91,3.08.18.25.83,1.31,1.95,3.18.11.21.24.41.38.62.21.32.41.63.62.92.39.57.64.95.75,1.13.46.73.84,1.29,1.16,1.67l3.55-4.99c1.16-1.5,2.68-3.69,4.55-6.56l.14-.17,2.91-5.16c.46-.66.68-1.15.68-1.47,0-.11-.03-.31-.1-.58-.34-.23-.63-.36-.85-.41-.09-.04-.57-.09-1.44-.14-.48-.09-.93-.17-1.37-.24-.43-.07-.79-.14-1.06-.21-.05-.3-.11-1.14-.21-2.53l7.01.38c.21.02.49.07.85.14h1.64l.58-.03c.73-.11,1.67-.21,2.84-.27.34-.02.67-.06.99-.1l-.03,2.56-.44.14c-1.91.32-3.22.74-3.93,1.26-1.03.78-2.4,2.64-4.14,5.61l-4.44,6.67c-2.67,3.62-4.39,6.1-5.16,7.42-.21.32-.38.72-.51,1.2v1.06l-.03,2.97v.82c-.07.59-.1,1.21-.1,1.85l.14,8.75c.09.18.22.31.38.38.32.09,1.05.21,2.19.34,2.19.23,3.41.42,3.66.58.18.11.27.34.27.68,0,.21-.02.48-.07.82,0,.21-.01.52-.03.96l-3.93-.07-3.66-.31-2.53-.17-3.79.14h-2.84c-.32-.02-.83.02-1.54.14-1.14.18-1.99.27-2.56.27l-2.36-.03c-.02-.48-.03-.84-.03-1.09s.01-.63.03-1.13l6.29-1.3c.27-.09.54-.21.79-.34.02-1.05.03-1.7.03-1.95,0-3.49-.02-5.86-.07-7.13-.05-1.26-.07-2-.07-2.2v-.79c0-1.44-.75-3.09-2.26-4.96-.64-.8-1.04-1.32-1.2-1.57l-6.7-10.19-3.14-5.06c-.11-.18-.82-1.12-2.12-2.8-.41-.36-.81-.62-1.2-.75-.23-.09-1.26-.33-3.11-.72-.11-.21-.17-.39-.17-.55,0-.14.01-.31.03-.53.02-.22.05-.54.07-.97Z" fill="#fff"/>
    <path d="m260.56,86.36l.07-2.32c.43-.14,1.2-.31,2.29-.51,1.75-.34,2.82-.65,3.2-.92.38-.27.84-.93,1.38-1.98l6.9-18.07,8.09-21.24h3.72l.31.62,5.94,14.08c1.34,2.99,2.55,5.88,3.62,8.7,1.07,2.82,1.99,5.11,2.77,6.89.46,1.07,1.08,2.68,1.88,4.82.41,1.16,1.04,2.62,1.88,4.38.46.96.8,1.52,1.03,1.67.41.34,1.08.57,2,.68.92.11,1.92.38,2.99.79.11.75.17,1.31.17,1.67,0,.16-.01.41-.03.75-1.69,0-3.54-.08-5.57-.24-2.03-.16-3.85-.24-5.47-.24-1.8,0-3.1.02-3.9.07l-5.81.31-1.67.07c0-.8.03-1.56.1-2.29l3.79-.82c1.14-.3,1.8-.52,1.98-.68.23-.23.34-.49.34-.79s-.06-.6-.17-.92l-1.36-3.35-2.68-6.7-13.05-.03c-.48,1.09-1.49,3.77-3.01,8.03-.43,1.21-.65,2.03-.65,2.46,0,.59.16,1.01.48,1.26.52.43,1.53.74,3.01.92.21.05,1.01.17,2.43.38.02.82.03,1.39.03,1.71,0,.25-.02.51-.07.79-1.41,0-4.79-.19-10.12-.58l-1.4.24c-1.69.27-3.29.41-4.82.41h-.62Zm16.08-19.21c5.33.07,8.47.1,9.42.1l.85-.03c-.68-2.03-1.57-4.39-2.67-7.09-1.09-2.7-1.98-4.76-2.67-6.17l-4.94,13.19Z" fill="#fff"/>
  </g>
</svg>