<?xml version="1.0" encoding="UTF-8"?>
<svg id="Layer_1" data-name="Layer 1" xmlns="http://www.w3.org/2000/svg" viewBox="0 0 114.21 124.06">
  <path d="m98.76,86.14c4.32-7.25,6.81-15.73,6.81-24.79,0-26.76-21.7-48.46-48.46-48.46S8.65,34.59,8.65,61.36c0,8.85,2.37,17.14,6.51,24.28" fill="none" stroke="#314917" stroke-miterlimit="10" stroke-width="1.23"/>
  <path d="m102.65,88.25c4.66-7.88,7.34-17.07,7.34-26.89,0-29.2-23.67-52.88-52.88-52.88S4.23,32.15,4.23,61.36c0,9.62,2.57,18.64,7.06,26.41" fill="none" stroke="#314917" stroke-miterlimit="10" stroke-width="2.05"/>
  <g>
    <path d="m79.19,96.49c7.99-4.46,14.34-11.26,17.95-19.4" fill="none" stroke="#79150a" stroke-miterlimit="10" stroke-width="1.23"/>
    <path d="m17.07,77.37c6.62,14.59,22.03,24.82,39.98,24.82,8.21,0,15.89-2.14,22.44-5.86" fill="none" stroke="#314917" stroke-miterlimit="10" stroke-width="1.23"/>
  </g>
  <path d="m15.31,48.36h18.43c.08,0,.12.09.08.15l-15.73,24c-.04.05,0,.13.07.13h8.33s5.45.86,7.31-4.44c.01-.04.07-.03.07.02l-.72,5.48H12.46l16.13-24.07s0-.1-.05-.1h-9.64s-3.35.44-4.76,3.72c-.04.08-.16.05-.14-.04l.8-4.41c.04-.25.26-.43.51-.43Z" fill="#314917"/>
  <path d="m58.85,71.17c-.79-1.74-10.67-22.72-11.26-23.97-.01-.02-.04-.02-.05,0l-9.71,21.6s-1.78,4.14-4.59,4.28l-.08.61s3.91.04,5.73-4.39c1.51-3.65,1.9-4.62,1.99-4.85.02-.04.05-.06.1-.06.69-.01,6.41-.04,9.94,1.82,3.72,1.97.23,8.09,10.72,7.51.07,0,.09-.11.02-.13-.65-.27-2.18-1.01-2.81-2.4Zm-17.3-8.07l4.18-9.73s.07-.04.09,0l4.53,9.86s0,.02-.01.02l-8.74-.1s-.05-.03-.04-.06Z" fill="#314917"/>
  <g>
    <path d="m66.23,115.93c-.42-1.5-.81-2.87-1.22-4.31-.51.97-.95,1.87-1.45,2.72-.51.86-1.1,1.67-2.05,2.26-.63-2.77-1.77-5.4-.49-8.35-.62.17-1.11.26-1.56.44-.51.2-.72.59-.57,1.17.05.21-.01.52-.15.68-.1.12-.47.17-.59.08-.18-.13-.33-.42-.33-.65,0-.85.54-1.41,1.28-1.67.96-.33,1.97-.53,3.14-.83-1.27,2.66-.47,5.06.23,7.67.43-.67.79-1.19,1.1-1.75.71-1.27,1.3-2.57,1.17-4.11-.05-.57.2-1.18.4-1.74.09-.25.39-.42.73-.58-.43,2.57.37,4.87,1.2,7.16.05,0,.11,0,.12-.02,1.27-1.55,2.13-3.27,2.26-5.3.05-.84-.23-1.58-.68-2.28-.11-.17-.06-.45-.08-.69.28-.02.7-.16.82-.03.29.32.54.75.65,1.17.26,1.07.04,2.13-.26,3.16-.56,1.96-1.58,3.66-2.94,5.16-.18.2-.41.37-.7.63Z" fill="#79150a"/>
    <path d="m21.51,102.56c.77-.59,1.5-1.15,2.23-1.73.44-.35.87-.72,1.27-1.12.14-.13.27-.42.21-.56-.06-.15-.34-.28-.53-.31-.87-.13-1.64.14-2.32.65-.73.54-1.44,1.11-2.21,1.7-.27-.22-.53-.45-.83-.7,1.22-1.12,2.69-1.88,3.86-3.15.07-.07.03-.19-.06-.21l-1.33-.36s-.05-.08,0-.12c.83-.09,1.69-.17,2.47.25.32.17.35.49.14.78-.17.23-.38.42-.64.69.21.02.37.04.54.04.24,0,.48,0,.73,0,1.49.07,1.77.54,1.07,1.89.48,0,.93,0,1.37,0,.49.01,1.01,0,1.24.56.23.56-.05,1.01-.43,1.35-.39.35-.8.7-1.2,1.03s-.81.66-1.21.99c-.14.11-.6.43-.7.49-.19.13-.16.15-.14.18.01.02.13.01.2.01.13,0,.25,0,.38,0h.66c.11,0,.57,0,.57,0,0,0-.02.1-.05.18-.1.27-.26.26-.41.27-.54.05-1.09.11-1.63.06-.69-.07-.91-.65-.45-1.17.38-.43.85-.8,1.29-1.18.51-.43,1.05-.82,1.54-1.27.18-.17.43-.54.36-.71-.13-.26-.38-.34-.74-.29-.69.08-1.38.3-1.98.63-.65.35-1.2.89-1.78,1.35-.74.59-.73.6-1.48-.21Z" fill="#79150a"/>
    <path d="m22.05,89.87c-.44-.36-.77-.67-1.15-.93-.41-.28-.8-.3-1.17.14-.15.17-.48.25-.72.25-.14,0-.42-.28-.39-.37.08-.25.22-.54.43-.69.51-.37,1.11-.4,1.66-.1.4.22.81.49,1.09.84,1.17,1.49,2.3,3.01,3.43,4.52-.69.67-1.54.98-1.84.68q.85-.97.07-2.13c-.26-.38-.54-.74-.84-1.15-1.05.6-2.05,1.16-3.11,1.76.55.74,1.06,1.43,1.62,2.18l-.53.36c-.44-.64-.87-1.25-1.28-1.86-.2-.3-.39-.38-.74-.2-.93.48-1.88.91-2.9,1.4.51.77.96,1.55,1.51,2.26.23.3.53.56.9.65.17.04.34.04.51,0,.09-.02.18-.04.27-.08.19-.05.36,0,.45.19.03.09.04.18.01.27-.02.1-.1.16-.17.22-.15.13-.31.23-.49.3-.17.06-.35.09-.53.08s-.36-.06-.52-.14c-.17-.09-.33-.21-.46-.35-.03-.04-.06-.07-.09-.11-.43-.56-.81-1.15-1.2-1.74-.68-1.05-1.35-2.12-2.1-3.28.29.13.52.19.7.32.35.26.7.28,1.07.09,2.06-1.07,4.11-2.14,6.17-3.21.05-.03.1-.06.35-.21Z" fill="#79150a"/>
    <path d="m30.81,103.82c.64,0,1.25-.08,1.83.02.87.14,1.21.77,1,1.61-.42,1.66-2.7,3.2-4.39,2.97-.29-.04-.59-.14-.86-.27-1.07-.53-1.32-1.43-.6-2.39.71-.95,1.47-1.87,2.27-2.75.77-.85,1.57-1.68,2.45-2.41.84-.69,1.87-.81,2.92-.51.17.05.35.11.5.22.32.22.58.53.3.91-.27.37-.6.19-.9-.03-1.24-.93-1.37-.92-2.43.27-.71.79-1.41,1.6-2.08,2.37Zm.68.49c-1.16,0-2.79,1.44-2.95,2.59-.09.64.41,1.1,1.09,1,.99-.14,2.5-1.56,2.7-2.55.15-.7-.14-1.05-.85-1.04Z" fill="#79150a"/>
    <path d="m87.63,106.02c.16-.39.31-.77.52-1.27.11.15.26.28.24.35-.18.57-.32,1.17-.62,1.68-.35.6-.81.58-1.16-.01-.28-.48-.47-1.02-.69-1.54-.26-.63-.49-1.28-.77-1.91-.08-.18-.31-.42-.45-.41-.19.02-.44.22-.52.41-.37.81-.51,1.66-.15,2.52.27.65.53,1.31.88,1.92.3.53.26.88-.32,1.12-.09.04-.17.1-.32.2-.7-1.56-1.38-3.09-2.07-4.62h-.15c-.16.36-.32.71-.54,1.19-.11-.16-.29-.32-.26-.4.25-.63.48-1.27.82-1.85.24-.41.61-.34.85.08.16.27.3.56.47.86.21-.67.38-1.32.63-1.94.17-.42.42-.85.99-.85.57,0,.81.44.98.86.38.91.69,1.85,1.04,2.77.11.28.48.79.58.84,0,0,.02,0,.02-.01Z" fill="#79150a"/>
    <path d="m44.24,108.48c-.93,1.62-1.78,3.11-2.63,4.6-.04.08.03.17.11.15.31-.08.88-.25,1.33-.39-.07.2-.09.44-.18.47-.59.24-1.19.51-1.81.61-.76.12-.97-.28-.61-.98.07-.14.16-.28.29-.53-.25.1-.4.17-.55.23-.43.16-.86.36-1.31.46-.98.22-1.58-.34-1.44-1.34.15-1.08.78-1.9,1.6-2.55,1.23-.97,2.56-1.53,4.14-.81.11.05.28-.13.38-.12.2,0,.44.11.68.2Zm-1.69.61c-1.04-.57-1.98-.31-2.62.41-.42.47-.71.82-1,1.38-.23.45-.37,1.01.1,1.39.6.23.93.05,1.34-.19,1.15-.67,1.61-1.85,2.18-2.99Z" fill="#79150a"/>
    <path d="m78.27,111.3c.21-.27.36-.45.49-.65.12-.18.21-.38.4-.73.1.27.23.44.18.53-.28.55-.54,1.14-.92,1.62-.47.59-.99.49-1.2-.23-.49-1.64-.91-3.3-1.34-4.96-.18-.7-.34-1.41-.45-2.13-.16-1.09.11-2.1.84-2.93.26-.3.65-.56,1.05-.69.2-.06.49.13.56.33s.06.37-.22.6c-.12.09-.35.15-.52.2-.85.24-1.1.5-.9,1.34.56,2.43,1.19,4.85,1.79,7.28.03.11.12.2.24.41Z" fill="#79150a"/>
    <path d="m53.63,115.09c-.84.66-1.74,1.18-2.86,1.12-.71-.04-1.16-.44-1.29-1.14-.29-1.53,1.2-4.52,3.39-4.72.71-.06,1.28.13,1.48.57.22.48.06,1.29-.49,1.62-.75.45-1.57.82-2.4,1.08-.53.17-.84.32-.73.92.1.55.49.92,1.07.81.52-.1,1.75-.68,1.85-.73.05.03.08.38-.01.45Zm-2.78-1.89c.7-.16,1.53-.3,2.04-.85.38-.4.42-.98.12-1.25-.3-.28-1.07.03-1.38.51-.37.56-.59.93-.77,1.59Z" fill="#79150a"/>
    <path d="m81.6,109.77c.31-.55.53-.94.81-1.43.1.18.22.32.19.39-.28.62-.53,1.26-.92,1.81-.33.48-.78.41-1.03-.14-.37-.8-.7-1.63-.98-2.47-.51-1.53-.98-3.07-1.44-4.61-.22-.74-.19-1.5.19-2.18.24-.43.58-.82.95-1.14.21-.18.64-.43.89-.26.23.15.22.38.16.51-.11.23-.43.45-.7.54-.85.3-1.08.61-.81,1.44.75,2.32,1.55,4.62,2.34,6.93.05.16.17.3.34.6Z" fill="#79150a"/>
    <path d="m91.97,101.12s-.08-.08-.11-.04c-.03.04-.12.29-.16.39-.21.54-.36,1.11-.66,1.6-.29.46-.77.45-1.22.15-.47-.3-.46-.62-.22-1.12.34-.68.63-1.4.77-2.14.18-.91-.25-1.63-.87-1.78-.63-.16-1.35.33-1.71,1.15,0,.02-.02.04-.03.05-.58,1.4.08,3.94,1.26,4.9.73.6,1.44.57,2.1-.11.72-.75.96-1.71,1-2.72,0-.11-.08-.22-.15-.33Zm-2.92.99s-.03,0-.04,0h0c-.09,0-.19-.03-.25-.11-.46-.58-1.09-2.24-.09-2.83.03-.02.06-.03.1-.04,1.04-.15,1.26,2.03.42,2.89-.04.04-.08.06-.13.08Z" fill="#79150a"/>
    <path d="m75.3,111.65c.07-.07.19-.03.21.06.02.09.03.18,0,.22-.44.85-.95,1.65-1.84,2.11-.96.49-1.83.2-2.21-.82-.58-1.55-.41-3.08.49-4.46.28-.43.78-.76,1.26-.99.71-.33,1.41.07,1.43.85.01.53-.15,1.13-.43,1.57-.34.53-.85.97-1.35,1.37-.42.34-.56.63-.24,1.09.32.46.8.66,1.25.37.41-.27.73-.67,1.08-1.03.08-.08.24-.24.36-.35Zm-3.11-.37c.02.09.13.12.2.06.53-.43,1.07-.89,1.27-1.58.14-.5-.1-1.04-.48-1.1-.48-.05-.74.27-.91.68-.24.57-.23,1.36-.08,1.93Z" fill="#79150a"/>
    <path d="m92.87,94.35c.15,0,.32.13.4.3.07.15.07.34-.03.48-.09.13-.29.19-.51.15-.56-.1-1,.16-1.12.66-.11.47.18.86.77.95.52.07,1.05.06,1.57.08,1.62.06,2.34,1.26,1.53,2.66-.29.5-.74.87-1.21,1.23-.18.14-.61.16-.86.1-.36-.07-.6-.4-.46-.74s.51-.39.81-.19c.47.32.85.12,1.08-.26.18-.3.33-.75.23-1.04-.09-.26-.52-.48-.84-.55-.51-.11-1.05-.06-1.57-.11-1.55-.16-2.12-1.31-1.36-2.68.32-.58.94-1.02,1.56-1.02Z" fill="#79150a"/>
    <path d="m32.74,110.53c1.05-1.46,2.06-2.88,3.08-4.3-.35.03-.69.13-1.03.14-.13,0-.42-.34-.14-.41.53-.1,1.07-.22,1.61-.21.63,0,.78.29.54.86-.12.27-.28.53-.5.93.52-.27.91-.51,1.33-.66.39-.14.82-.25,1.21-.2.4.05.51.46.48.66-.06.39-.43.57-.84.42-1.07-.37-2.14-.09-2.94.84-.44.52-.85,1.08-1.25,1.63-.61.84-.6.85-1.55.29Z" fill="#79150a"/>
    <path d="m95.69,94.17c-1.02-.04-1.54-.46-1.64-1.34-.11-1.01.5-2.08,1.33-2.26.2-.05.46-.06.66.14.09.1.16.31.09.52-.13.26-.41.23-.6.2-.56-.08-.94.27-1,.75-.05.46.31.84.89.85.58.01,1.17-.08,1.75-.07,1.49.02,2.21,1.16,1.61,2.53-.29.66-.72,1.25-1.45,1.44-.25.07-.64.04-.85-.23-.1-.19-.08-.39.02-.58.1-.17.41-.2.56-.14.48.2.87.09,1.08-.34.15-.3.28-.74.16-1-.12-.25-.54-.42-.87-.51-.3-.08-1.49.02-1.75.01Z" fill="#79150a"/>
    <path d="m47.99,114.09c-.07.16-.09.41-.21.48-.76.44-1.57.75-2.47.66-.8-.08-1.24-.51-1.37-1.29-.3-1.83,2.03-4.89,4.4-4.4.31.06.62.19.88.37.34.24.36.64.07.88-.15.12-.6.09-.77-.05-1.22-.98-2.06-.84-2.73.6-.29.63-.52,1.33-.58,2.01-.09,1,.57,1.45,1.52,1.13.38-.13.73-.33,1.09-.49.05.03.11.06.16.09Z" fill="#79150a"/>
  </g>
  <g>
    <path d="m47.61,47.09c.57,1.2,1.07,2.25,1.57,3.31,2.15,4.55,6.94,15.72,10.28,20.88,1.34,2.07,2.17,2.14,2.46,2.19.02,0,.02.03,0,.03-.42.06-2.42.08-3.46-.01-2.84-.26-4.59-1.88-5.58-4.47-.14-.38-.35-.73-.47-1.12-.35-1.14-1.15-1.79-2.22-2.24-2.84-1.18-5.79-1.6-8.84-1.48-.19,0-.44.25-.53.44-.73,1.6-1.45,3.21-2.14,4.83-.77,1.79-1.94,3.18-3.82,3.83-.6.21-1.26.36-1.89.36-6.66.02-13.32,0-19.98,0-.13,0-.27-.01-.59-.03,5.39-8.09,10.7-16.07,16.06-24.11-.24-.02-.41-.05-.59-.05-2.51,0-5.02-.07-7.53.03-1.07.04-2.17.28-3.18.64-1.39.49-2.29,1.55-2.73,2.97-.06.19-.11.39-.21.57-.04.08-.46-.04-.44-.12.29-1.61.58-3.22.94-4.81.07-.34.44-.33.73-.33,2.87-.03,5.75-.03,8.62-.03,3.06,0,6.11,0,9.17,0,.17,0,.35.02.76.04-5.36,8.11-10.63,16.1-15.94,24.13.23.01.4.03.58.03,2.93,0,5.87,0,8.8,0,1.21,0,2.37-.25,3.44-.85,1.39-.78,2.82-3.86,2.92-4.05.09.03.19.06.28.09-.25,1.7-.5,3.4-.77,5.3.64-.31,1.18-.51,1.65-.82,1.42-.94,2.26-2.35,2.94-3.86,2.24-4.98,4.46-9.97,6.71-14.94.87-1.94,2.85-6.09,3-6.36Zm-6.11,15.98h8.72c-1.46-3.23-2.89-6.38-4.38-9.68-1.48,3.31-2.9,6.47-4.34,9.68Z" fill="#314917"/>
    <path d="m80.6,48.49c.45-2.43.47-4.78.03-7.18-2.33.57-4.43,1.54-6.34,3.01-1-2.27-2.13-4.36-3.99-5.99-1.86,1.61-2.94,3.7-3.89,5.94-1.93-1.49-3.99-2.51-6.32-3.07-.47,2.7-.42,5.32.16,7.99-2.85-1.16-5.69-1.47-8.67-.92.26,1.8,1.09,3.94,2.24,5.78,1.82,2.92,4.29,4.99,7.59,6.09,4.43,1.48,9.36-.53,11.56-3.64,2.3-3.24,2.74-6.8,1.79-10.58-.11-.42-.03-.65.31-.91,1.31-.98,2.73-1.74,4.26-2.28.14-.05.3-.06.46-.09.3,2.04.12,4-.27,5.96-.04.21-.26.46-.47.56-1.69.85-2.8,2.2-3.6,3.88-1,2.11-2.04,4.2-3.08,6.3-.13.26-.26.53-.4.79.35.31,1.06.41,1.56.44,0,0,0,0,0,0,.04,0,.08,0,.12,0,.02,0,.04,0,.07,0,.02,0,.04,0,.06,0,.12,0,.26,0,.4,0,.72-.02,1.68-.14,2.76-.52,3.71-1.23,6.66-3.58,8.42-7.17.71-1.45,1.3-2.94,1.59-4.58-2.14-.45-4.21-.37-6.38.18Zm-13.23-3.85c.75-1.75,1.64-3.42,2.98-4.98.6.87,1.2,1.66,1.71,2.5.47.78.85,1.61,1.22,2.44.08.18.03.51-.1.67-.93,1.16-1.9,2.29-2.87,3.45.04.04-.04-.01-.08-.09-.71-1.28-1.57-2.44-2.65-3.44-.13-.12-.25-.42-.19-.55Zm-14.52,4.38c.94,0,1.86-.05,2.78.01,1.54.11,3.03.43,4.09,1.68.41.49.78,1.04,1.07,1.61,1.18,2.32,2.33,4.66,3.49,7,.03.07.04.15.07.23-5.28.09-10.35-5.01-11.5-10.53Zm16.38,9.36c-.45-.14-.92-.24-1.35-.44-2.17-1.01-3.64-2.68-4.6-4.86-.45-1.03-1.09-1.97-1.58-2.99-.24-.5-.39-1.06-.51-1.6-.4-1.79-.46-3.6-.3-5.43.01-.16.06-.31.11-.55,1.87.53,3.45,1.46,4.87,2.65.13.11.12.48.06.7-.7,2.56-.62,5.08.3,7.57.55,1.47,1.35,2.8,2.39,3.98.24.27.48.54.72.81-.05.08-.05.07-.1.15Zm1.63-1.07c-.34.32-.58.39-.94.02-3.04-3.15-4.07-6.84-3.03-11.09,0-.03.05-.06.11-.12,1.52,1.32,2.38,3.11,3.4,4.95.97-1.81,1.84-3.54,3.43-4.97.13.9.3,1.64.35,2.39.23,3.44-.82,6.4-3.32,8.82Zm8.07-6.81c-.6,2.35-1.8,4.31-3.81,5.74,1.02-2.08,1.63-4.42,3.81-5.74Zm-5.54,9.14l.64-1.36c.08-.18.22-.34.39-.45.63-.42,2.24-1.51,2.98-2.26,1.43-1.44,2.21-3.27,2.72-5.21.14-.54.42-.8.94-.95,1.42-.41,2.87-.45,4.33-.38.11,0,.26.01.36.02-.79,6.82-9.29,11.25-12.37,10.59Z" fill="#79150a"/>
    <path d="m72.96,60.5l-.99-.38c-.09.18-.17.35-.26.53-.32.66-.68,1.29-1.08,2.04-.37-.79-.69-1.46-.97-2.07-1.36.36-2.68.71-4.03,1.07.05.12.12.3.22.47.63,1.13.87,2.45.94,3.73.06,1.13.06,7.66.06,7.66h4.32s-.02-4.59-.06-6.89c-.04-1.97,1.86-6.17,1.86-6.17" fill="#314917"/>
    <path d="m103.68,72.42c-.07.19-.11.44-.32.52-.11.05-.24.03-.37,0-.33-.08-.63-.26-.89-.48s-.47-.49-.66-.77c-.56-.8-.96-1.68-1.38-2.56-.47-.98-.94-1.96-1.41-2.95s-.94-1.96-1.4-2.95-.94-1.96-1.4-2.95-.93-1.97-1.4-2.95-.93-1.97-1.4-2.95-.93-1.97-1.4-2.95-.93-1.97-1.4-2.95c-.04-.08-.08-.17-.12-.25-.18-.37-.39-.73-.65-1.21-.18.36-.3.59-.41.82-2.03,4.41-4.06,8.82-6.07,13.23-1.21,2.65-2.37,5.32-3.59,7.96-.94,2.05-2.35,3.62-4.65,4.2-.11.03-.2.16-.43.34.32.03.45.05.59.05,2.24-.06,3.95-1.1,4.97-3.04,1.03-1.97,1.87-4.03,2.77-6.07.16-.37.35-.53.77-.51,1.13.07,2.27.04,3.39.17,2.27.25,4.45.85,6.41,2.05.37.23.69.63.89,1.02.54,1.06.96,2.19,1.51,3.24.83,1.57,2.19,2.48,3.92,2.77,1.05.18,2.12.23,3.19.3.22.01.43.03.65.05.09-.41.19-.81.28-1.22Zm-20.26-9.43c1.45-3.2,2.86-6.34,4.33-9.6,1.51,3.25,2.97,6.39,4.46,9.6h-8.8Z" fill="#314917"/>
  </g>
</svg>