<?xml version="1.0" encoding="UTF-8"?>
<svg id="Layer_1" data-name="Layer 1" xmlns="http://www.w3.org/2000/svg" viewBox="0 0 58.32 58.32" width="58.32" height="58.32">
  <circle cx="29.16" cy="29.16" r="29.16" fill="#fff"/>
  <g>
    <path d="m49.26,40.76c2.09-3.5,3.29-7.59,3.29-11.96,0-12.92-10.47-23.39-23.39-23.39S5.78,15.88,5.78,28.8c0,4.27,1.14,8.27,3.14,11.72" fill="none" stroke="#314917" stroke-miterlimit="10" stroke-width=".5"/>
    <path d="m51.14,41.77c2.25-3.8,3.54-8.24,3.54-12.98,0-14.09-11.43-25.52-25.52-25.52S3.64,14.7,3.64,28.8c0,4.64,1.24,9,3.41,12.74" fill="none" stroke="#314917" stroke-miterlimit="10" stroke-width=".84"/>
    <path d="m39.82,45.75c3.86-2.15,6.92-5.44,8.66-9.36" fill="none" stroke="#cd8062" stroke-miterlimit="10" stroke-width=".5"/>
    <path d="m9.84,36.52c3.2,7.04,10.63,11.98,19.29,11.98,3.96,0,7.67-1.03,10.83-2.83" fill="none" stroke="#314917" stroke-miterlimit="10" stroke-width=".5"/>
    <path d="m8.99,22.53h8.9s.06.04.04.07l-7.59,11.58s0,.06.03.06h4.02s2.63.42,3.53-2.14c0-.02.04-.01.03,0l-.35,2.64H7.62l7.79-11.61s0-.05-.03-.05h-4.65s-1.62.21-2.3,1.8c-.02.04-.08.02-.07-.02l.39-2.13c.02-.12.13-.21.25-.21h0Z" fill="#314917"/>
    <path d="m30,33.54c-.38-.84-5.15-10.96-5.43-11.57,0-.01-.02-.01-.03,0l-4.69,10.43s-.86,2-2.21,2.06l-.04.29s1.89.02,2.77-2.12c.73-1.76.92-2.23.96-2.34,0-.02.03-.03.05-.03.33,0,3.09-.02,4.79.88,1.8.95.11,3.91,5.17,3.62.04,0,.04-.05.01-.07-.32-.13-1.05-.49-1.36-1.16h0Zm-8.35-3.89l2.02-4.69s.03-.02.04,0l2.18,4.76s0,0,0,0l-4.22-.05s-.02-.02-.02-.03Z" fill="#314917"/>
    <path d="m33.57,55.13c-.2-.72-.39-1.38-.59-2.08-.25.47-.46.9-.7,1.31-.25.42-.53.81-.99,1.09-.3-1.34-.86-2.61-.24-4.03-.3.08-.54.13-.76.21-.25.1-.35.28-.27.56.03.1,0,.25-.07.33-.05.06-.23.08-.29.04-.09-.07-.16-.2-.16-.31,0-.41.26-.68.62-.8.46-.16.95-.25,1.52-.4-.61,1.28-.23,2.44.11,3.7.21-.32.38-.58.53-.84.34-.61.63-1.24.56-1.98-.02-.27.09-.57.19-.84.04-.12.19-.2.35-.28-.21,1.24.18,2.35.58,3.46.02,0,.05,0,.06-.01.61-.75,1.03-1.58,1.09-2.56.02-.4-.11-.76-.33-1.1-.05-.08-.03-.22-.04-.33.14,0,.34-.08.39-.01.14.16.26.36.31.56.12.52.02,1.03-.13,1.53-.27.94-.76,1.76-1.42,2.49-.09.1-.2.18-.34.31h0Z" fill="#cd8062"/>
    <path d="m11.98,48.68c.37-.29.73-.56,1.08-.83.21-.17.42-.35.61-.54.07-.07.13-.2.1-.27-.03-.07-.16-.13-.26-.15-.42-.07-.79.07-1.12.32-.35.26-.69.53-1.07.82-.13-.11-.26-.22-.4-.34.59-.54,1.3-.91,1.86-1.52.03-.03.01-.09-.03-.1l-.64-.18s-.02-.04,0-.06c.4-.04.81-.08,1.19.12.16.08.17.24.07.38-.08.11-.18.2-.31.34.1,0,.18.02.26.02.12,0,.23,0,.35,0,.72.03.86.26.52.91.23,0,.45,0,.66,0,.24,0,.49,0,.6.27.11.27-.03.49-.21.65-.19.17-.38.34-.58.5-.2.16-.39.32-.59.48-.07.06-.29.2-.34.23-.09.06-.08.07-.07.09,0,0,.06,0,.1,0h.77s-.01.05-.02.08c-.05.13-.13.12-.2.13-.26.02-.53.05-.78.03-.33-.03-.44-.31-.22-.57.19-.21.41-.39.62-.57.24-.21.51-.4.74-.62.09-.08.2-.26.17-.34-.06-.12-.18-.16-.36-.14-.33.04-.66.15-.95.3-.31.17-.58.43-.86.65-.36.29-.35.29-.72-.1h0Z" fill="#cd8062"/>
    <path d="m12.24,42.56c-.21-.17-.37-.33-.55-.45-.2-.13-.38-.14-.57.07-.07.08-.23.12-.35.12-.07,0-.2-.14-.19-.18.04-.12.11-.26.21-.33.25-.18.54-.19.8-.05.19.1.39.24.53.41.57.72,1.11,1.45,1.66,2.18-.33.32-.74.47-.89.33.27-.31.28-.66.03-1.03-.12-.18-.26-.36-.41-.55-.51.29-.99.56-1.5.85.27.36.51.69.78,1.05l-.26.17c-.21-.31-.42-.6-.62-.9-.1-.14-.19-.18-.36-.1-.45.23-.91.44-1.4.67.24.37.46.75.73,1.09.11.14.25.27.43.31.08.02.16.02.24,0,.04,0,.09-.02.13-.04.09-.02.17,0,.22.09.01.04.02.09,0,.13-.01.05-.05.08-.08.11-.07.06-.15.11-.24.14-.08.03-.17.04-.26.04-.09,0-.17-.03-.25-.07-.08-.04-.16-.1-.22-.17-.02-.02-.03-.04-.04-.05-.21-.27-.39-.56-.58-.84-.33-.51-.65-1.02-1.01-1.58.14.06.25.09.34.16.17.13.34.14.52.04.99-.52,1.98-1.03,2.98-1.55.03-.01.05-.03.17-.1h0Z" fill="#cd8062"/>
    <path d="m16.47,49.29c.31,0,.6-.04.88,0,.42.07.58.37.48.78-.2.8-1.3,1.55-2.12,1.43-.14-.02-.29-.07-.41-.13-.51-.26-.64-.69-.29-1.15.34-.46.71-.9,1.1-1.33.37-.41.76-.81,1.18-1.16.4-.33.9-.39,1.41-.25.08.02.17.06.24.1.15.11.28.25.15.44-.13.18-.29.09-.43-.01-.6-.45-.66-.44-1.17.13-.34.38-.68.77-1,1.14h0Zm.33.24c-.56,0-1.35.69-1.42,1.25-.04.31.2.53.53.48.48-.07,1.2-.75,1.3-1.23.07-.34-.07-.51-.41-.5Z" fill="#cd8062"/>
    <path d="m43.89,50.35c.08-.19.15-.37.25-.62.05.08.13.14.12.17-.09.28-.16.57-.3.81-.17.29-.39.28-.56,0-.14-.23-.23-.49-.33-.74-.13-.31-.23-.62-.37-.92-.04-.09-.15-.2-.22-.2-.09.01-.21.11-.25.2-.18.39-.24.8-.07,1.22.13.31.26.63.42.93.15.26.12.42-.16.54-.04.02-.08.05-.16.09-.34-.75-.67-1.49-1-2.23h-.07c-.08.17-.15.34-.26.57-.05-.08-.14-.15-.13-.19.12-.3.23-.62.4-.89.12-.2.29-.16.41.04.08.13.15.27.23.41.1-.32.18-.64.3-.94.08-.2.2-.41.48-.41.27,0,.39.21.47.42.18.44.33.89.5,1.34.05.14.23.38.28.41,0,0,0,0,0,0h0Z" fill="#cd8062"/>
    <path d="m22.95,51.54c-.45.78-.86,1.5-1.27,2.22-.02.04.01.08.05.07.15-.04.43-.12.64-.19-.04.1-.04.21-.09.23-.29.11-.58.25-.88.29-.37.06-.47-.14-.3-.47.04-.07.08-.14.14-.26-.12.05-.19.08-.27.11-.21.08-.41.17-.63.22-.47.1-.76-.16-.69-.65.07-.52.38-.92.77-1.23.59-.47,1.23-.74,2-.39.05.02.13-.06.18-.06.1,0,.21.05.33.1h0Zm-.82.29c-.5-.28-.96-.15-1.26.2-.2.23-.34.39-.48.67-.11.22-.18.49.05.67.29.11.45.03.65-.09.55-.33.78-.89,1.05-1.44h0Z" fill="#cd8062"/>
    <path d="m39.37,52.9c.1-.13.17-.22.24-.31.06-.09.1-.19.19-.35.05.13.11.21.09.26-.13.27-.26.55-.44.78-.23.28-.48.24-.58-.11-.24-.79-.44-1.59-.65-2.39-.09-.34-.17-.68-.22-1.03-.08-.53.05-1.01.41-1.41.13-.14.32-.27.5-.33.1-.03.24.06.27.16.03.09.03.18-.11.29-.06.05-.17.07-.25.1-.41.12-.53.24-.44.65.27,1.17.57,2.34.87,3.51.01.05.06.1.12.2h0Z" fill="#cd8062"/>
    <path d="m27.48,54.73c-.4.32-.84.57-1.38.54-.34-.02-.56-.21-.62-.55-.14-.74.58-2.18,1.64-2.28.35-.03.62.06.71.28.1.23.03.62-.24.78-.36.22-.76.39-1.16.52-.25.08-.41.15-.35.44.05.27.24.45.52.39.25-.05.84-.33.89-.35.03.01.04.18,0,.22h0Zm-1.34-.91c.34-.08.74-.14.98-.41.18-.2.2-.47.06-.6-.15-.14-.51.02-.67.25-.18.27-.28.45-.37.77Z" fill="#cd8062"/>
    <path d="m40.98,52.16c.15-.26.26-.45.39-.69.05.09.11.16.09.19-.14.3-.26.61-.44.88-.16.23-.37.2-.5-.07-.18-.39-.34-.79-.47-1.19-.25-.74-.47-1.48-.7-2.23-.11-.36-.09-.72.09-1.05.12-.21.28-.4.46-.55.1-.08.31-.21.43-.13.11.07.1.18.08.25-.05.11-.21.22-.34.26-.41.15-.52.3-.39.7.36,1.12.75,2.23,1.13,3.34.03.08.08.14.16.29h0Z" fill="#cd8062"/>
    <path d="m45.98,47.99s-.04-.04-.05-.02c-.02.02-.06.14-.08.19-.1.26-.17.54-.32.77-.14.22-.37.22-.59.07-.23-.15-.22-.3-.1-.54.16-.33.31-.68.37-1.03.09-.44-.12-.79-.42-.86-.3-.08-.65.16-.83.56,0,0,0,.02-.01.03-.28.68.04,1.9.61,2.36.35.29.69.28,1.01-.05.35-.36.46-.82.48-1.31,0-.05-.04-.11-.07-.16h0Zm-1.41.48s-.01,0-.02,0h0s-.09-.01-.12-.05c-.22-.28-.52-1.08-.05-1.37.01,0,.03-.01.05-.02.5-.07.61.98.2,1.39-.02.02-.04.03-.06.04Z" fill="#cd8062"/>
    <path d="m37.94,53.07s.09-.01.1.03c0,.04.01.09,0,.11-.21.41-.46.8-.89,1.02-.46.24-.88.1-1.07-.4-.28-.75-.2-1.48.23-2.15.13-.21.38-.37.61-.48.34-.16.68.03.69.41,0,.25-.07.54-.21.76-.16.26-.41.47-.65.66-.2.16-.27.3-.11.53.15.22.39.32.6.18.2-.13.35-.32.52-.5.04-.04.11-.11.17-.17h0Zm-1.5-.18s.06.06.1.03c.25-.21.52-.43.61-.76.07-.24-.05-.5-.23-.53-.23-.02-.36.13-.44.33-.11.27-.11.66-.04.93h0Z" fill="#cd8062"/>
    <path d="m46.42,44.72c.07,0,.16.06.19.14.03.07.03.16-.02.23-.04.06-.14.09-.25.07-.27-.05-.48.08-.54.32-.05.22.09.42.37.46.25.03.5.03.76.04.78.03,1.13.61.74,1.28-.14.24-.36.42-.58.59-.09.07-.29.08-.42.05-.17-.04-.29-.19-.22-.36.07-.17.24-.19.39-.09.23.15.41.06.52-.12.09-.14.16-.36.11-.5-.04-.12-.25-.23-.41-.27-.24-.05-.5-.03-.76-.05-.75-.08-1.02-.63-.66-1.29.16-.28.45-.49.75-.49h0Z" fill="#cd8062"/>
    <path d="m17.4,52.53c.51-.71.99-1.39,1.49-2.08-.17.01-.33.06-.5.07-.06,0-.2-.17-.07-.2.26-.05.52-.1.77-.1.3,0,.38.14.26.42-.06.13-.13.25-.24.45.25-.13.44-.25.64-.32.19-.07.4-.12.58-.1.19.03.25.22.23.32-.03.19-.21.27-.41.2-.52-.18-1.03-.04-1.42.41-.21.25-.41.52-.6.79-.29.41-.29.41-.75.14h0Z" fill="#cd8062"/>
    <path d="m47.78,44.63c-.49-.02-.74-.22-.79-.65-.06-.49.24-1,.64-1.09.1-.02.22-.03.32.07.05.05.08.15.04.25-.06.13-.2.11-.29.1-.27-.04-.45.13-.48.36-.02.22.15.4.43.41.28,0,.56-.04.85-.03.72,0,1.07.56.78,1.22-.14.32-.35.6-.7.7-.12.03-.31.02-.41-.11-.05-.09-.04-.19.01-.28.05-.08.2-.1.27-.07.23.1.42.04.52-.16.07-.14.13-.36.08-.48-.06-.12-.26-.2-.42-.24-.14-.04-.72.01-.84,0h0Z" fill="#cd8062"/>
    <path d="m24.76,54.25c-.03.08-.04.2-.1.23-.37.21-.76.36-1.19.32-.39-.04-.6-.24-.66-.62-.14-.88.98-2.36,2.12-2.12.15.03.3.09.42.18.16.11.18.31.03.43-.07.06-.29.04-.37-.02-.59-.47-.99-.4-1.32.29-.14.3-.25.64-.28.97-.04.48.28.7.73.54.18-.06.35-.16.53-.24.03.01.05.03.08.04h0Z" fill="#cd8062"/>
    <path d="m24.58,21.91c.27.58.52,1.09.76,1.6,1.04,2.2,3.35,7.59,4.96,10.08.65,1,1.05,1.03,1.18,1.06,0,0,0,.01,0,.01-.2.03-1.17.04-1.67,0-1.37-.12-2.22-.91-2.69-2.16-.07-.18-.17-.35-.23-.54-.17-.55-.55-.86-1.07-1.08-1.37-.57-2.8-.77-4.27-.72-.09,0-.21.12-.26.21-.35.77-.7,1.55-1.03,2.33-.37.86-.94,1.53-1.84,1.85-.29.1-.61.17-.91.17-3.21,0-6.43,0-9.64,0-.07,0-.13,0-.29-.01,2.6-3.9,5.16-7.75,7.75-11.63-.12,0-.2-.02-.28-.02-1.21,0-2.42-.03-3.63.01-.52.02-1.05.14-1.53.31-.67.24-1.1.75-1.32,1.44-.03.09-.05.19-.1.27-.02.04-.22-.02-.21-.06.14-.78.28-1.55.45-2.32.03-.16.21-.16.35-.16,1.39-.01,2.77-.01,4.16-.01,1.47,0,2.95,0,4.42,0,.08,0,.17,0,.37.02-2.59,3.92-5.13,7.77-7.69,11.64.11,0,.19.01.28.01,1.42,0,2.83,0,4.25,0,.58,0,1.14-.12,1.66-.41.67-.37,1.36-1.86,1.41-1.95.04.01.09.03.13.05-.12.82-.24,1.64-.37,2.56.31-.15.57-.25.8-.4.68-.45,1.09-1.13,1.42-1.86,1.08-2.4,2.15-4.81,3.24-7.21.42-.93,1.38-2.94,1.45-3.07h0Zm-2.95,7.71h4.21c-.71-1.56-1.39-3.08-2.11-4.67-.72,1.6-1.4,3.12-2.09,4.67h0Z" fill="#314917"/>
    <path d="m40.5,22.59c.22-1.17.23-2.31.02-3.47-1.13.27-2.14.74-3.06,1.45-.48-1.1-1.03-2.1-1.93-2.89-.9.78-1.42,1.79-1.88,2.87-.93-.72-1.92-1.21-3.05-1.48-.22,1.3-.2,2.57.08,3.85-1.38-.56-2.75-.71-4.18-.44.13.87.53,1.9,1.08,2.79.88,1.41,2.07,2.41,3.67,2.94,2.14.71,4.51-.25,5.58-1.76,1.11-1.57,1.32-3.28.86-5.11-.05-.2-.02-.31.15-.44.63-.47,1.32-.84,2.06-1.1.07-.02.14-.03.22-.04.15.98.06,1.93-.13,2.87-.02.1-.13.22-.23.27-.81.41-1.35,1.06-1.74,1.87-.48,1.02-.99,2.03-1.49,3.04-.06.13-.13.26-.19.38.17.15.51.2.75.21h0s.04,0,.06,0c.01,0,.02,0,.03,0h.03c.06,0,.12,0,.19,0,.35,0,.81-.07,1.33-.25,1.79-.6,3.22-1.73,4.07-3.46.34-.7.63-1.42.77-2.21-1.03-.21-2.03-.18-3.08.09h0Zm-6.38-1.86c.36-.84.79-1.65,1.44-2.4.29.42.58.8.82,1.21.22.37.41.77.59,1.17.04.09.01.25-.05.32-.45.56-.92,1.11-1.39,1.67.02.02-.02,0-.04-.04-.34-.62-.76-1.18-1.28-1.66-.06-.06-.12-.2-.09-.27h0Zm-7.01,2.11c.45,0,.9-.03,1.34,0,.74.05,1.46.2,1.98.81.2.24.38.5.52.78.57,1.12,1.13,2.25,1.69,3.38.02.03.02.07.03.11-2.55.04-5-2.42-5.55-5.08h0Zm7.9,4.52c-.22-.07-.45-.12-.65-.21-1.05-.49-1.76-1.29-2.22-2.35-.22-.5-.53-.95-.76-1.44-.12-.24-.19-.51-.25-.77-.19-.86-.22-1.74-.15-2.62,0-.08.03-.15.05-.26.9.26,1.66.71,2.35,1.28.06.05.06.23.03.34-.34,1.23-.3,2.45.14,3.65.26.71.65,1.35,1.15,1.92.11.13.23.26.35.39-.02.04-.02.03-.05.07h0Zm.79-.52c-.16.16-.28.19-.45,0-1.47-1.52-1.96-3.3-1.46-5.35,0-.02.02-.03.05-.06.73.64,1.15,1.5,1.64,2.39.47-.87.89-1.71,1.65-2.4.07.43.15.79.17,1.16.11,1.66-.39,3.09-1.6,4.26Zm3.89-3.29c-.29,1.13-.87,2.08-1.84,2.77.49-1,.79-2.13,1.84-2.77Zm-2.67,4.41l.31-.66c.04-.09.1-.17.19-.22.3-.2,1.08-.73,1.44-1.09.69-.7,1.07-1.58,1.31-2.51.07-.26.2-.39.46-.46.69-.2,1.38-.22,2.09-.18.05,0,.13,0,.18,0-.38,3.29-4.48,5.43-5.97,5.11h0Z" fill="#cd8062"/>
    <path d="m36.81,28.39l-.48-.18c-.04.09-.08.17-.13.26-.16.32-.33.63-.52.99-.18-.38-.33-.71-.47-1-.66.17-1.29.34-1.95.52.03.06.06.14.1.23.3.55.42,1.18.45,1.8.03.55.03,3.7.03,3.7h2.09s0-2.22-.03-3.33c-.02-.95.9-2.98.9-2.98" fill="#314917"/>
    <path d="m51.64,34.14c-.03.09-.05.21-.16.25-.06.02-.12.02-.18,0-.16-.04-.3-.12-.43-.23-.12-.11-.22-.24-.32-.37-.27-.39-.46-.81-.66-1.24-.23-.47-.45-.95-.68-1.42-.23-.47-.45-.95-.68-1.42-.23-.47-.45-.95-.68-1.42-.23-.47-.45-.95-.68-1.42-.23-.47-.45-.95-.68-1.42-.23-.47-.45-.95-.68-1.42-.23-.47-.45-.95-.68-1.42-.02-.04-.04-.08-.06-.12-.09-.18-.19-.35-.31-.58-.09.17-.15.28-.2.39-.98,2.13-1.96,4.25-2.93,6.39-.58,1.28-1.14,2.57-1.73,3.84-.45.99-1.14,1.75-2.24,2.03-.06.01-.1.08-.2.16.15.01.22.03.28.02,1.08-.03,1.91-.53,2.4-1.47.5-.95.9-1.95,1.34-2.93.08-.18.17-.26.37-.24.54.03,1.09.02,1.64.08,1.1.12,2.15.41,3.1.99.18.11.33.3.43.49.26.51.46,1.06.73,1.56.4.76,1.06,1.19,1.89,1.34.51.09,1.02.11,1.54.15.1,0,.21.01.31.02.05-.2.09-.39.14-.59h0Zm-9.78-4.55c.7-1.55,1.38-3.06,2.09-4.63.73,1.57,1.43,3.08,2.15,4.63h-4.24Z" fill="#314917"/>
  </g>
</svg>