<svg width="25" height="30" viewBox="0 0 25 30" fill="none" xmlns="http://www.w3.org/2000/svg">
<path d="M22.8737 26.2483C21.5949 28.1081 20.239 29.923 18.1744 29.953C16.1097 29.998 15.4472 28.7681 13.1052 28.7681C10.7478 28.7681 10.0237 29.923 8.06686 29.998C6.04844 30.073 4.52308 28.0181 3.22883 26.2033C0.594107 22.4985 -1.42431 15.674 1.28745 11.0843C2.62793 8.80442 5.03153 7.36451 7.63544 7.31951C9.60768 7.28952 11.4874 8.62443 12.7046 8.62443C13.9064 8.62443 16.1868 7.01953 18.575 7.25952C19.5765 7.30451 22.3807 7.64949 24.1834 10.2293C24.0447 10.3193 20.8399 12.1492 20.8707 15.9439C20.917 20.4736 24.9538 21.9885 25 22.0035C24.9538 22.1085 24.3529 24.1634 22.8737 26.2483ZM14.0759 2.24985C15.2007 1.00493 17.065 0.059996 18.6058 0C18.8061 1.75488 18.0819 3.52477 17.0034 4.78468C15.9403 6.0596 14.1838 7.04953 12.4581 6.91454C12.227 5.18966 13.0898 3.38977 14.0759 2.24985Z" fill="black"/>
</svg>
