<svg width="30" height="30" viewBox="0 0 30 30" fill="none" xmlns="http://www.w3.org/2000/svg">
<path d="M30 15.0916C30 11.0891 28.4204 7.25047 25.6086 4.42024C22.7969 1.59001 18.9833 6.44282e-06 15.0069 6.44282e-06C11.2316 -0.00350297 7.59385 1.42679 4.82043 4.00519C2.04701 6.58359 0.342059 10.1203 0.0461511 13.9088C-0.249756 17.6973 0.88516 21.4587 3.2242 24.4417C5.56324 27.4247 8.9342 29.4096 12.6637 30V19.4531H8.85978V15.0916H12.6659V11.7672C12.6659 7.98563 14.9041 5.89436 18.329 5.89436C19.9696 5.89436 21.6853 6.18973 21.6853 6.18973V9.90442H19.794C17.9306 9.90442 17.3523 11.0686 17.3523 12.2609V15.0916H21.5096L20.8457 19.4531H17.3501V30C20.8767 29.4379 24.0883 27.6275 26.4072 24.8946C28.7261 22.1617 30.0001 18.6856 30 15.0916Z" fill="#1877F2"/>
</svg>
