<svg width="30" height="30" viewBox="0 0 30 30" fill="none" xmlns="http://www.w3.org/2000/svg">
<path d="M30.0006 15.3332C30.0006 14.0999 29.8985 13.1999 29.6775 12.2665H15.3066V17.8332H23.7421C23.572 19.2166 22.6536 21.2999 20.6127 22.6999L20.5841 22.8863L25.128 26.3359L25.4427 26.3666C28.3339 23.75 30.0006 19.8999 30.0006 15.3332Z" fill="#4285F4"/>
<path d="M15.3064 30C19.439 30 22.9083 28.6666 25.4425 26.3666L20.6124 22.6998C19.32 23.5832 17.5852 24.1998 15.3064 24.1998C11.2588 24.1998 7.8234 21.5831 6.59879 17.9665L6.41929 17.9814L1.6946 21.5648L1.63281 21.7331C4.14981 26.6331 9.31993 30 15.3064 30Z" fill="#34A853"/>
<path d="M6.59861 17.9669C6.27549 17.0336 6.08848 16.0335 6.08848 15.0002C6.08848 13.9668 6.27549 12.9669 6.58161 12.0335L6.57305 11.8347L1.78914 8.19379L1.63262 8.26675C0.595247 10.3002 0 12.5835 0 15.0002C0 17.4169 0.595247 19.7002 1.63262 21.7336L6.59861 17.9669Z" fill="#FBBC05"/>
<path d="M15.3065 5.80001C18.1806 5.80001 20.1194 7.01667 21.2249 8.03341L25.5446 3.90003C22.8916 1.48335 19.4391 0 15.3065 0C9.31993 0 4.14982 3.36667 1.63281 8.26665L6.58182 12.0334C7.82344 8.41672 11.2588 5.80001 15.3065 5.80001Z" fill="#EB4335"/>
</svg>
