<svg width="16" height="16" viewBox="0 0 16 16" fill="none" xmlns="http://www.w3.org/2000/svg">
<path d="M8 15.5C6.39182 15.5 5.23455 15.4992 4.33227 15.4117C3.44034 15.3252 2.86977 15.1591 2.41443 14.873C1.89401 14.546 1.45394 14.106 1.12693 13.5856C0.840909 13.1302 0.674659 12.5597 0.588296 11.6677C0.500796 10.7655 0.5 9.60818 0.5 8C0.5 6.39182 0.500796 5.23455 0.588296 4.33227C0.674659 3.44034 0.840909 2.86977 1.12693 2.41443C1.45393 1.89399 1.89399 1.45393 2.41443 1.12693C2.86977 0.840909 3.44034 0.674659 4.33227 0.588296C5.23443 0.500796 6.3917 0.5 8 0.5C9.60818 0.5 10.7655 0.500796 11.6677 0.588296C12.5597 0.674659 13.1302 0.840909 13.5856 1.12693C14.106 1.45394 14.546 1.89401 14.873 2.41443C15.1591 2.86977 15.3252 3.44034 15.4117 4.33227C15.4992 5.23455 15.5 6.39182 15.5 8C15.5 9.60818 15.4992 10.7655 15.4117 11.6677C15.3252 12.5597 15.1591 13.1302 14.873 13.5856C14.546 14.106 14.106 14.546 13.5856 14.873C13.1302 15.1591 12.5597 15.3252 11.6677 15.4117C10.7655 15.4992 9.60818 15.5 8 15.5Z" stroke="#5C8F75"/>
<path d="M8.00028 11.409C9.88307 11.409 11.4094 9.8827 11.4094 7.99991C11.4094 6.11712 9.88307 4.59082 8.00028 4.59082C6.11749 4.59082 4.59119 6.11712 4.59119 7.99991C4.59119 9.8827 6.11749 11.409 8.00028 11.409Z" stroke="#5C8F75"/>
<path d="M12.4315 4.59086C12.9964 4.59086 13.4543 4.13297 13.4543 3.56814C13.4543 3.0033 12.9964 2.54541 12.4315 2.54541C11.8667 2.54541 11.4088 3.0033 11.4088 3.56814C11.4088 4.13297 11.8667 4.59086 12.4315 4.59086Z" fill="#5C8F75"/>
</svg>
