<svg width="57" height="57" viewBox="0 0 57 57" fill="none" xmlns="http://www.w3.org/2000/svg">
<path d="M15 5.11211C18.9713 2.81482 23.5822 1.5 28.5 1.5C43.4116 1.5 55.5 13.5883 55.5 28.5C55.5 43.4116 43.4116 55.5 28.5 55.5C13.5883 55.5 1.5 43.4116 1.5 28.5C1.5 23.5822 2.81482 18.9713 5.11211 15M33.6329 22.8878C36.5226 25.2708 37.9675 26.4621 37.9675 28.5C37.9675 30.5379 36.5226 31.7293 33.6329 34.1123C32.8353 34.7702 32.0441 35.3895 31.3169 35.9056C30.679 36.3583 29.9566 36.8266 29.2087 37.2864C26.3258 39.0585 24.8843 39.9447 23.5915 38.9636C22.2987 37.9826 22.1812 35.9287 21.9462 31.8214C21.8798 30.6596 21.8377 29.521 21.8377 28.5C21.8377 27.479 21.8798 26.3404 21.9462 25.1786C22.1812 21.0712 22.2987 19.0175 23.5915 18.0364C24.8843 17.0554 26.3258 17.9415 29.2087 19.7136C29.9566 20.1734 30.679 20.6417 31.3169 21.0945C32.0441 21.6106 32.8353 22.23 33.6329 22.8878Z" stroke="white" stroke-width="3" stroke-linecap="round"/>
</svg>
