<svg width="15" height="15" viewBox="0 0 15 15" fill="none" xmlns="http://www.w3.org/2000/svg">
<path d="M13.5208 5.04567C13.8296 5.80229 14 6.6306 14 7.5H15C15 6.49887 14.8035 5.54235 14.4467 4.66783L13.5208 5.04567ZM14 7.5C14 7.9618 13.9519 8.41187 13.8607 8.8456L14.8392 9.05153C14.9447 8.55047 15 8.03147 15 7.5H14ZM13.8607 8.8456C13.3326 11.3551 11.3552 13.3326 8.8456 13.8607L9.05153 14.8392C11.949 14.2295 14.2295 11.949 14.8392 9.05153L13.8607 8.8456ZM8.8456 13.8607C8.41187 13.9519 7.9618 14 7.5 14V15C8.03147 15 8.55047 14.9447 9.05153 14.8392L8.8456 13.8607ZM7.5 14C7.03813 14 6.58813 13.9519 6.15437 13.8607L5.94846 14.8392C6.44947 14.9447 6.96853 15 7.5 15V14ZM1 7.5C1 6.62993 1.17067 5.80099 1.47991 5.04389L0.554147 4.66578C0.196733 5.54085 0 6.49807 0 7.5H1ZM6.15437 13.8607C3.64483 13.3326 1.66741 11.3551 1.13935 8.8456L0.160782 9.05153C0.770473 11.949 3.05098 14.2295 5.94846 14.8392L6.15437 13.8607ZM1.13935 8.8456C1.04809 8.41187 1 7.9618 1 7.5H0C0 8.03147 0.0553534 8.55047 0.160782 9.05153L1.13935 8.8456ZM1.47991 5.04389C2.28471 3.07344 4.02921 1.58653 6.15437 1.13935L5.94846 0.160782C3.49355 0.677347 1.48246 2.39294 0.554147 4.66578L1.47991 5.04389ZM6.15437 1.13935C6.58813 1.04809 7.03813 1 7.5 1V0C6.96853 0 6.44947 0.0553534 5.94846 0.160782L6.15437 1.13935ZM7.5 1C7.9618 1 8.41187 1.04809 8.8456 1.13935L9.05153 0.160783C8.55047 0.055354 8.03147 0 7.5 0V1ZM8.8456 1.13935C10.9714 1.58667 12.7163 3.07433 13.5208 5.04567L14.4467 4.66783C13.5187 2.39397 11.5072 0.6775 9.05153 0.160783L8.8456 1.13935ZM8.47227 0.80206C8.66547 1.4076 9.381 3.73747 9.67433 5.8788L10.6651 5.74307C10.3593 3.51109 9.62087 1.11223 9.42493 0.49808L8.47227 0.80206ZM9.67433 5.8788C9.753 6.4528 9.8 7.00453 9.8 7.5H10.8C10.8 6.9454 10.7477 6.346 10.6651 5.74307L9.67433 5.8788ZM13.7815 4.40161C13.0128 4.63475 11.5689 5.04427 10.079 5.31924L10.2605 6.30267C11.8031 6.01793 13.2873 5.59649 14.0717 5.35857L13.7815 4.40161ZM10.079 5.31924C9.17527 5.48603 8.27193 5.6 7.5 5.6V6.6C8.35827 6.6 9.32867 6.4746 10.2605 6.30267L10.079 5.31924ZM9.8 7.5C9.8 8.23393 9.69693 9.0872 9.54313 9.94733L10.5275 10.1233C10.6865 9.2346 10.8 8.3168 10.8 7.5H9.8ZM9.54313 9.94733C9.20607 11.8328 8.6398 13.6729 8.47227 14.1979L9.42493 14.5019C9.59667 13.9637 10.1787 12.0742 10.5275 10.1233L9.54313 9.94733ZM14.1979 8.47227C13.6729 8.6398 11.8328 9.20607 9.94733 9.54313L10.1233 10.5275C12.0742 10.1787 13.9637 9.59667 14.5019 9.42493L14.1979 8.47227ZM9.94733 9.54313C9.0872 9.69693 8.23393 9.8 7.5 9.8V10.8C8.3168 10.8 9.2346 10.6865 10.1233 10.5275L9.94733 9.54313ZM7.5 9.8C6.76607 9.8 5.91282 9.69693 5.05265 9.54313L4.87664 10.5275C5.76538 10.6865 6.6832 10.8 7.5 10.8V9.8ZM5.05265 9.54313C3.16717 9.20607 1.32711 8.6398 0.80206 8.47227L0.49808 9.42493C1.03625 9.59667 2.92582 10.1787 4.87664 10.5275L5.05265 9.54313ZM4.2 7.5C4.2 8.3168 4.31355 9.2346 4.47245 10.1233L5.45684 9.94733C5.30304 9.0872 5.2 8.23393 5.2 7.5H4.2ZM4.47245 10.1233C4.82125 12.0742 5.40336 13.9637 5.57507 14.5019L6.52773 14.1979C6.3602 13.6729 5.79396 11.8328 5.45684 9.94733L4.47245 10.1233ZM5.57507 0.49808C5.37911 1.11223 4.64067 3.51109 4.3349 5.74307L5.32564 5.8788C5.61899 3.73747 6.33453 1.4076 6.52773 0.80206L5.57507 0.49808ZM4.3349 5.74307C4.25231 6.346 4.2 6.9454 4.2 7.5H5.2C5.2 7.00453 5.24701 6.4528 5.32564 5.8788L4.3349 5.74307ZM7.5 5.6C6.72807 5.6 5.82473 5.48603 4.92101 5.31924L4.73953 6.30267C5.67131 6.4746 6.64173 6.6 7.5 6.6V5.6ZM4.92101 5.31924C3.43057 5.04417 1.98614 4.63445 1.21771 4.40137L0.92744 5.35831C1.71167 5.59619 3.19638 6.01783 4.73953 6.30267L4.92101 5.31924ZM13.7533 4.413C13.7613 4.40887 13.771 4.40479 13.7815 4.40161L14.0717 5.35857C14.122 5.34332 14.1693 5.32379 14.2141 5.30049L13.7533 4.413ZM0.756167 5.28139C0.808813 5.31359 0.86592 5.33965 0.92744 5.35831L1.21771 4.40137C1.23989 4.40809 1.26032 4.41753 1.27789 4.42828L0.756167 5.28139Z" fill="#5C8F75"/>
</svg>
