<svg width="15" height="15" viewBox="0 0 15 15" fill="none" xmlns="http://www.w3.org/2000/svg">
<path d="M11.0015 9.00749C10.8508 8.93258 9.87125 8.48315 9.72055 8.40824C9.56984 8.33333 9.41914 8.33333 9.26843 8.48315C9.11772 8.63296 8.81631 9.0824 8.6656 9.23221C8.59025 9.38202 8.43954 9.38202 8.28884 9.30712C7.76137 9.0824 7.2339 8.78277 6.78178 8.40824C6.40501 8.03371 6.02825 7.58427 5.72683 7.13483C5.65148 6.98502 5.72683 6.83521 5.80219 6.7603C5.87754 6.68539 5.95289 6.53558 6.1036 6.46067C6.17895 6.38577 6.25431 6.23595 6.25431 6.16105C6.32966 6.08614 6.32966 5.93633 6.25431 5.86142C6.17895 5.78652 5.80219 4.88764 5.65148 4.51311C5.57613 3.98876 5.42542 3.98876 5.27472 3.98876C5.19936 3.98876 5.04866 3.98876 4.89795 3.98876C4.74724 3.98876 4.52118 4.13858 4.44583 4.21348C3.99371 4.66292 3.76765 5.18727 3.76765 5.78652C3.84301 6.46067 4.06907 7.13483 4.52118 7.73408C5.35007 8.93258 6.40501 9.90637 7.68601 10.5056C8.06278 10.6554 8.36419 10.8052 8.74096 10.8801C9.11772 11.03 9.49449 11.03 9.94661 10.9551C10.4741 10.8801 10.9262 10.5056 11.2276 10.0562C11.3783 9.75655 11.3783 9.45693 11.303 9.1573C11.303 9.1573 11.1523 9.0824 11.0015 9.00749ZM12.8854 2.19101C9.94661 -0.730337 5.19936 -0.730337 2.26059 2.19101C-0.150706 4.58802 -0.602825 8.25843 1.05494 11.1798L0 15L3.99371 13.9513C5.12401 14.5506 6.32966 14.8502 7.53531 14.8502C11.6797 14.8502 14.9953 11.5543 14.9953 7.43446C15.0706 5.48689 14.2417 3.61423 12.8854 2.19101ZM10.8508 12.6779C9.87125 13.2772 8.74096 13.6517 7.53531 13.6517C6.40501 13.6517 5.35007 13.3521 4.37048 12.8277L4.14442 12.6779L1.80847 13.2772L2.4113 11.03L2.26059 10.8052C0.452118 7.80899 1.35636 4.06367 4.29513 2.19101C7.2339 0.318352 11.0015 1.29213 12.81 4.13858C14.6185 7.05993 13.7896 10.8801 10.8508 12.6779Z" fill="#5C8F75"/>
</svg>
