<svg width="107" height="108" viewBox="0 0 107 108" fill="none" xmlns="http://www.w3.org/2000/svg">
<path d="M94.4105 77.7183C98.6896 70.5411 101.15 62.1532 101.15 53.1914C101.15 26.7074 79.6789 5.23671 53.1949 5.23671C26.7109 5.23671 5.24023 26.7074 5.24023 53.1914C5.24023 61.9484 7.58666 70.1578 11.6873 77.2235" stroke="#314917" stroke-width="1.03476" stroke-miterlimit="10"/>
<path d="M98.2572 79.8011C102.871 72.0034 105.52 62.9077 105.52 53.1914C105.52 24.2921 82.0918 0.862305 53.1905 0.862305C24.2891 0.862305 0.861328 24.29 0.861328 53.1914C0.861328 62.711 3.40244 71.6363 7.84382 79.3246" stroke="#314917" stroke-width="1.72461" stroke-miterlimit="10"/>
<path d="M75.0449 87.9618C82.9562 83.5468 89.231 76.8158 92.8104 68.7625" stroke="#CD8062" stroke-width="1.03476" stroke-miterlimit="10"/>
<path d="M13.5703 69.0344C20.1229 83.4759 35.3696 93.5998 53.131 93.5998C61.2593 93.5998 68.8604 91.4806 75.3419 87.7977" stroke="#314917" stroke-width="1.03476" stroke-miterlimit="10"/>
<path d="M11.8286 40.3316H30.0707C30.1457 40.3316 30.1923 40.4168 30.1497 40.4797L14.5826 64.2279C14.5461 64.2826 14.5867 64.3536 14.6516 64.3536H22.8996C22.8996 64.3536 28.2961 65.2094 30.1295 59.9568C30.1437 59.9163 30.2025 59.9305 30.1984 59.9731L29.4846 65.392H9.01367L24.9783 41.5769C25.0067 41.5343 24.9783 41.4755 24.9235 41.4755H15.3817C15.3817 41.4755 12.0699 41.9135 10.6706 45.1563C10.6361 45.2374 10.5164 45.2009 10.5306 45.1158L11.3216 40.7535C11.3662 40.5081 11.5791 40.3316 11.8265 40.3316H11.8286Z" fill="#314917"/>
<path d="M54.9157 62.9057C54.1349 61.188 44.3558 40.425 43.7717 39.1819C43.7616 39.1596 43.7291 39.1596 43.717 39.1819L34.1041 60.5593C34.1041 60.5593 32.3479 64.6579 29.5654 64.7918L29.4863 65.39C29.4863 65.39 33.3517 65.4265 35.1587 61.0419C36.6493 57.428 37.0407 56.4687 37.132 56.2436C37.1482 56.2051 37.1847 56.1808 37.2253 56.1787C37.9107 56.1686 43.5669 56.1341 47.0571 57.9816C50.74 59.9306 47.2843 65.9923 57.6678 65.4103C57.7408 65.4062 57.759 65.3048 57.6921 65.2765C57.0452 65.0128 55.5363 64.2746 54.9117 62.9016L54.9157 62.9057ZM37.7931 54.9193L41.9262 45.2923C41.9425 45.2558 41.9952 45.2538 42.0114 45.2923L46.4913 55.0532C46.4913 55.0532 46.4893 55.0735 46.4771 55.0735L37.8316 54.9781C37.8012 54.9781 37.7809 54.9457 37.7931 54.9193Z" fill="#314917"/>
<path d="M62.2239 107.196C61.8041 105.713 61.4208 104.361 61.0172 102.935C60.5102 103.892 60.0782 104.78 59.5793 105.628C59.0744 106.482 58.4883 107.281 57.5452 107.867C56.9246 105.125 55.791 102.519 57.0605 99.6008C56.4501 99.7691 55.9634 99.8604 55.5111 100.037C55.0041 100.236 54.7972 100.617 54.9473 101.193C55 101.4 54.9352 101.708 54.8013 101.868C54.7019 101.988 54.3328 102.036 54.2132 101.945C54.0388 101.811 53.8867 101.525 53.8887 101.306C53.8988 100.465 54.42 99.9091 55.1501 99.6556C56.1013 99.327 57.1011 99.1344 58.2571 98.8362C57.0017 101.465 57.7906 103.845 58.4801 106.423C58.902 105.758 59.265 105.243 59.5712 104.693C60.2729 103.432 60.861 102.152 60.7272 100.623C60.6785 100.061 60.9219 99.4548 61.1206 98.8991C61.2078 98.6537 61.508 98.4834 61.8406 98.3232C61.4167 100.866 62.2056 103.14 63.029 105.409C63.0777 105.401 63.1345 105.409 63.1527 105.387C64.4081 103.856 65.2659 102.152 65.3856 100.14C65.4363 99.3108 65.1564 98.5787 64.7102 97.8871C64.5987 97.7147 64.6535 97.4369 64.6332 97.2077C64.911 97.1915 65.3227 97.0536 65.4423 97.1834C65.7344 97.5018 65.9818 97.9216 66.0812 98.3394C66.3367 99.396 66.1177 100.444 65.8236 101.469C65.27 103.405 64.26 105.087 62.9114 106.571C62.7289 106.772 62.5098 106.938 62.2198 107.2L62.2239 107.196Z" fill="#CD8062"/>
<path d="M17.9707 93.969C18.7271 93.3829 19.4593 92.8292 20.1752 92.2573C20.6112 91.9085 21.0391 91.5455 21.4346 91.1541C21.5684 91.0202 21.6962 90.7363 21.6394 90.5964C21.5785 90.4443 21.3068 90.3205 21.1121 90.2901C20.2563 90.1563 19.4937 90.4321 18.8144 90.9371C18.0944 91.4725 17.3907 92.0322 16.6281 92.6203C16.3645 92.3993 16.1009 92.1762 15.8027 91.9247C17.0094 90.8134 18.4655 90.067 19.6256 88.8056C19.6905 88.7346 19.656 88.619 19.5627 88.5927L18.2445 88.2337C18.2262 88.1891 18.1978 88.1546 18.2546 88.1161C19.08 88.0309 19.9237 87.9478 20.7004 88.3635C21.0208 88.5359 21.0472 88.8462 20.8363 89.1342C20.672 89.3572 20.4611 89.5458 20.2035 89.8217C20.4165 89.8399 20.5747 89.8602 20.7329 89.8642C20.9722 89.8703 21.2135 89.8561 21.4508 89.8683C22.9211 89.9373 23.205 90.4037 22.5114 91.7361C22.986 91.7361 23.4281 91.726 23.8702 91.7381C24.3529 91.7503 24.866 91.7462 25.0931 92.2918C25.3243 92.8414 25.0384 93.2896 24.6652 93.6262C24.2758 93.9771 23.8763 94.3158 23.4727 94.6484C23.0691 94.981 22.6757 95.3014 22.2721 95.6238C22.1302 95.7374 21.6739 96.0436 21.5826 96.1045C21.394 96.2322 21.4244 96.2525 21.4467 96.2789C21.4609 96.2951 21.5765 96.2931 21.6434 96.2931C21.7672 96.2931 21.8909 96.2931 22.0146 96.2931H22.6656C22.7751 96.2931 23.2273 96.2931 23.2273 96.2931C23.2273 96.2931 23.205 96.3965 23.1787 96.4655C23.0752 96.7291 22.917 96.721 22.7751 96.7352C22.2417 96.7859 21.6962 96.8447 21.1669 96.794C20.4834 96.7271 20.2644 96.1511 20.7248 95.6319C21.106 95.202 21.5644 94.837 22.0044 94.4638C22.5054 94.0359 23.0448 93.6506 23.5255 93.2024C23.7039 93.034 23.9453 92.671 23.8804 92.5047C23.7526 92.2492 23.5092 92.1681 23.1503 92.2188C22.4648 92.2979 21.7874 92.5169 21.1953 92.8373C20.5544 93.1841 20.0109 93.7134 19.4349 94.1779C18.7069 94.764 18.7129 94.768 17.9666 93.971L17.9707 93.969Z" fill="#CD8062"/>
<path d="M18.4963 81.4054C18.0623 81.0504 17.7297 80.7381 17.3585 80.4867C16.955 80.2149 16.5696 80.1946 16.1985 80.6286C16.0525 80.799 15.728 80.8781 15.4826 80.8801C15.3467 80.8801 15.0709 80.6002 15.0953 80.5191C15.1703 80.2697 15.3123 79.9878 15.5171 79.8397C16.0241 79.4747 16.6183 79.4463 17.1618 79.7403C17.5573 79.9553 17.9649 80.225 18.2387 80.5718C19.3987 82.0422 20.5101 83.553 21.6377 85.0436C20.9603 85.7027 20.1126 86.011 19.8185 85.719C20.3769 85.0768 20.4006 84.3757 19.8895 83.6159C19.634 83.2407 19.3521 82.8838 19.056 82.4822C18.0136 83.0724 17.03 83.6281 15.9795 84.2223C16.525 84.9585 17.032 85.6419 17.5796 86.3801L17.0543 86.735C16.6142 86.1002 16.1904 85.502 15.7848 84.8936C15.5881 84.5995 15.4035 84.5143 15.0506 84.6968C14.1319 85.1714 13.1889 85.5973 12.181 86.08C12.6819 86.8405 13.1342 87.6152 13.6736 88.3209C13.8987 88.615 14.1948 88.8786 14.5639 88.9658C14.7282 89.0044 14.8985 89.0044 15.0648 88.9739C15.1561 88.9577 15.2474 88.9314 15.3325 88.8969C15.5171 88.8502 15.6854 88.8908 15.7787 89.0855C15.8071 89.1707 15.8172 89.266 15.7929 89.3552C15.7686 89.4485 15.6956 89.5134 15.6266 89.5742C15.4826 89.7 15.3163 89.8034 15.1378 89.8683C14.9715 89.9291 14.7931 89.9575 14.6146 89.9474C14.4361 89.9373 14.2617 89.8906 14.1036 89.8115C13.9312 89.7263 13.777 89.6047 13.6472 89.4627C13.6148 89.4262 13.5844 89.3897 13.556 89.3532C13.1301 88.7995 12.7509 88.2134 12.3696 87.6273C11.6922 86.5849 11.0291 85.5324 10.2949 84.3805C10.5809 84.5103 10.81 84.5691 10.9844 84.7009C11.3312 84.9625 11.676 84.9808 12.0451 84.7901C14.0812 83.7335 16.1154 82.6749 18.1495 81.6163C18.2022 81.5899 18.2509 81.5554 18.4983 81.4074L18.4963 81.4054Z" fill="#CD8062"/>
<path d="M27.168 95.2101C27.8048 95.2101 28.4051 95.135 28.979 95.2283C29.8369 95.3682 30.1776 95.9888 29.9646 96.8183C29.5448 98.4569 27.2957 99.9881 25.6165 99.7589C25.3265 99.7204 25.0304 99.621 24.7668 99.4892C23.7122 98.9619 23.4628 98.0696 24.1685 97.1245C24.8723 96.1835 25.6267 95.2729 26.4196 94.4029C27.1822 93.5653 27.9731 92.7379 28.8431 92.018C29.6706 91.3345 30.6907 91.2128 31.7371 91.513C31.9075 91.5616 32.0839 91.6265 32.2279 91.7259C32.5443 91.947 32.7978 92.2471 32.5281 92.6264C32.2644 92.9975 31.9318 92.815 31.6418 92.598C30.4128 91.6772 30.283 91.6874 29.2325 92.8636C28.5308 93.6505 27.8393 94.4475 27.172 95.208L27.168 95.2101ZM27.8453 95.6968C26.6934 95.6988 25.0811 97.1184 24.925 98.2643C24.8398 98.897 25.3326 99.3513 26.0059 99.258C26.9814 99.1221 28.4761 97.7106 28.6809 96.7311C28.8249 96.0415 28.545 95.6948 27.8453 95.6968Z" fill="#CD8062"/>
<path d="M83.3969 97.3862C83.551 97.0029 83.7051 96.6237 83.9059 96.1248C84.0154 96.2789 84.1675 96.4026 84.1452 96.4736C83.9647 97.0394 83.8248 97.6357 83.5307 98.1407C83.1839 98.7369 82.7276 98.7166 82.3808 98.1265C82.0989 97.6499 81.9124 97.1165 81.6994 96.6014C81.4419 95.9747 81.2188 95.3318 80.9409 94.7133C80.8618 94.5369 80.6286 94.2955 80.4927 94.3118C80.3041 94.3341 80.0608 94.5348 79.9756 94.7194C79.6106 95.5245 79.4767 96.3641 79.8316 97.2138C80.1013 97.8567 80.3609 98.5118 80.7016 99.1182C80.9998 99.6475 80.9551 99.9862 80.3812 100.221C80.292 100.258 80.2129 100.321 80.0608 100.414C79.3692 98.8687 78.6919 97.3558 78.0125 95.8429H77.8604C77.7022 96.1958 77.546 96.5426 77.329 97.0192C77.2215 96.865 77.039 96.7048 77.0674 96.6278C77.3108 96.0052 77.544 95.3663 77.8806 94.7944C78.1179 94.3908 78.4809 94.4598 78.7223 94.8735C78.8805 95.1453 79.0245 95.4251 79.1867 95.7233C79.3976 95.0581 79.5619 94.4132 79.8093 93.8027C79.9797 93.3849 80.221 92.957 80.7888 92.9651C81.3526 92.9733 81.5879 93.4032 81.7603 93.821C82.1334 94.7234 82.4396 95.6543 82.7925 96.5649C82.9 96.8427 83.2671 97.3416 83.3665 97.3964C83.3746 97.4004 83.3847 97.3964 83.3867 97.3862H83.3969Z" fill="#CD8062"/>
<path d="M40.4597 99.8259C39.5389 101.432 38.6953 102.904 37.8516 104.377C37.807 104.454 37.878 104.545 37.9632 104.521C38.2714 104.438 38.8352 104.273 39.2753 104.138C39.2023 104.338 39.1881 104.572 39.0948 104.608C38.5067 104.841 37.9145 105.115 37.3 105.212C36.5496 105.33 36.3367 104.935 36.6916 104.243C36.7646 104.101 36.8457 103.965 36.9836 103.72C36.7403 103.821 36.5902 103.89 36.4361 103.947C36.0061 104.103 35.5863 104.3 35.1442 104.399C34.1748 104.614 33.5847 104.062 33.7205 103.073C33.8666 102.002 34.4973 101.191 35.3085 100.55C36.5212 99.5947 37.8395 99.033 39.4091 99.7509C39.5187 99.8016 39.685 99.6211 39.7843 99.6272C39.9871 99.6353 40.2244 99.7387 40.4597 99.8239V99.8259ZM38.7825 100.43C37.7502 99.8645 36.8214 100.122 36.1907 100.832C35.7749 101.3 35.493 101.639 35.2051 102.199C34.9779 102.641 34.836 103.199 35.3044 103.574C35.8946 103.805 36.2231 103.626 36.6308 103.387C37.7644 102.72 38.2207 101.56 38.7845 100.43H38.7825Z" fill="#CD8062"/>
<path d="M74.1338 102.612C74.3366 102.345 74.4887 102.168 74.6164 101.974C74.7341 101.793 74.8274 101.594 75.0099 101.256C75.1052 101.519 75.235 101.694 75.1904 101.781C74.9146 102.33 74.6611 102.908 74.2818 103.383C73.8194 103.963 73.3043 103.868 73.0914 103.152C72.6087 101.529 72.1909 99.8867 71.7671 98.246C71.5886 97.5524 71.4284 96.8487 71.325 96.1389C71.1668 95.06 71.4365 94.0602 72.1585 93.2429C72.4181 92.9508 72.8054 92.6872 73.1928 92.5655C73.3935 92.5026 73.6775 92.6953 73.7464 92.888C73.8154 93.0806 73.8113 93.253 73.5294 93.4781C73.4118 93.5714 73.1867 93.6302 73.0143 93.6789C72.1686 93.9182 71.9293 94.1697 72.1199 95.0032C72.6736 97.4125 73.2942 99.8056 73.8945 102.203C73.9208 102.31 74.0101 102.403 74.1317 102.61L74.1338 102.612Z" fill="#CD8062"/>
<path d="M49.7548 106.362C48.9274 107.019 48.0351 107.534 46.9257 107.47C46.22 107.429 45.7779 107.033 45.6461 106.346C45.354 104.833 46.8365 101.872 49.0045 101.68C49.7122 101.617 50.2659 101.805 50.4667 102.245C50.6816 102.72 50.5275 103.519 49.9799 103.85C49.2397 104.296 48.4265 104.657 47.6031 104.92C47.0819 105.087 46.7716 105.235 46.8771 105.831C46.9744 106.376 47.3658 106.746 47.9377 106.636C48.4549 106.537 49.6656 105.969 49.769 105.914C49.8218 105.942 49.8461 106.293 49.7569 106.364L49.7548 106.362ZM47.0028 104.494C47.6964 104.334 48.5137 104.2 49.0187 103.657C49.3918 103.257 49.4324 102.692 49.1383 102.42C48.8382 102.142 48.0837 102.452 47.7674 102.923C47.3983 103.474 47.1853 103.837 47.0028 104.494Z" fill="#CD8062"/>
<path d="M77.4357 101.104C77.7439 100.562 77.965 100.175 78.2408 99.6921C78.3361 99.8726 78.4618 100.011 78.4314 100.075C78.1495 100.686 77.9021 101.325 77.5249 101.87C77.1943 102.347 76.7583 102.276 76.5088 101.732C76.1458 100.935 75.8173 100.12 75.5415 99.2885C75.0385 97.7756 74.5721 96.2506 74.1137 94.7235C73.8927 93.9913 73.9272 93.2389 74.3024 92.5717C74.5396 92.1499 74.8743 91.7565 75.2454 91.4441C75.4522 91.2718 75.8761 91.0223 76.1276 91.1866C76.3567 91.3367 76.3405 91.5658 76.2898 91.6916C76.1783 91.9248 75.8599 92.1337 75.5942 92.227C74.7566 92.5251 74.5214 92.8333 74.7891 93.6527C75.5354 95.9464 76.3223 98.2259 77.101 100.507C77.1558 100.666 77.2673 100.803 77.4377 101.1L77.4357 101.104Z" fill="#CD8062"/>
<path d="M87.6902 92.5392C87.6658 92.5007 87.6111 92.4642 87.5807 92.4986C87.5482 92.5392 87.461 92.7846 87.4245 92.8799C87.2176 93.4133 87.0716 93.9811 86.7735 94.4597C86.4896 94.916 86.015 94.9018 85.5628 94.6057C85.1004 94.3056 85.1024 93.9892 85.3478 93.5005C85.6845 92.8333 85.9745 92.1133 86.1144 91.3832C86.2888 90.4807 85.865 89.7689 85.2545 89.6168C84.636 89.4627 83.914 89.9474 83.5591 90.7566C83.551 90.7748 83.5408 90.791 83.5327 90.8113C82.9629 92.1985 83.6078 94.7132 84.7759 95.6583C85.5019 96.2464 86.1976 96.2261 86.8506 95.5488C87.5685 94.8045 87.7956 93.8594 87.8362 92.8596C87.8403 92.7542 87.7571 92.6426 87.6902 92.5372V92.5392ZM84.8023 93.5187C84.7881 93.5228 84.7759 93.5248 84.7617 93.5268H84.7597C84.6684 93.5349 84.5751 93.4984 84.5143 93.4193C84.0641 92.8434 83.4394 91.1987 84.421 90.6186C84.4514 90.6024 84.4839 90.5882 84.5184 90.5842C85.5445 90.4402 85.7636 92.5899 84.9341 93.4437C84.8956 93.4822 84.8509 93.5066 84.8023 93.5187Z" fill="#CD8062"/>
<path d="M71.1933 102.959C71.2623 102.892 71.3799 102.929 71.3982 103.022C71.4144 103.107 71.4245 103.197 71.3982 103.243C70.9662 104.087 70.4551 104.876 69.577 105.326C68.6259 105.815 67.768 105.523 67.3888 104.513C66.8108 102.975 66.9831 101.469 67.8694 100.102C68.1432 99.6799 68.6441 99.3473 69.1126 99.1242C69.8143 98.7937 70.5119 99.1952 70.5281 99.9679C70.5403 100.489 70.3781 101.085 70.1002 101.523C69.7676 102.049 69.2606 102.487 68.7678 102.882C68.3541 103.215 68.2121 103.505 68.5326 103.965C68.8489 104.419 69.3235 104.622 69.7697 104.328C70.1753 104.06 70.4957 103.663 70.8384 103.306C70.9175 103.225 71.0737 103.071 71.1913 102.957L71.1933 102.959ZM68.1128 102.598C68.1351 102.685 68.2405 102.72 68.3095 102.663C68.8307 102.239 69.3722 101.777 69.5669 101.1C69.7088 100.609 69.4715 100.075 69.0943 100.01C68.6218 99.9618 68.3622 100.276 68.1898 100.686C67.9546 101.248 67.9627 102.034 68.1107 102.6L68.1128 102.598Z" fill="#CD8062"/>
<path d="M88.5813 85.8406C88.7314 85.8406 88.9017 85.9704 88.9808 86.1347C89.0518 86.2847 89.0457 86.4693 88.9464 86.6113C88.8592 86.735 88.6563 86.8019 88.4414 86.7593C87.8898 86.666 87.4476 86.9155 87.3341 87.4123C87.2286 87.8727 87.5146 88.2661 88.0986 88.3493C88.6097 88.4203 89.1329 88.4061 89.6521 88.4263C91.2563 88.4912 91.9701 89.6776 91.161 91.0587C90.873 91.5495 90.4288 91.9186 89.9644 92.2755C89.7819 92.4155 89.3662 92.4297 89.1127 92.3769C88.7578 92.3039 88.5225 91.9835 88.6604 91.6408C88.7983 91.298 89.1613 91.2534 89.4574 91.4522C89.9239 91.7645 90.3011 91.5718 90.5302 91.1966C90.7107 90.9026 90.8608 90.4544 90.7635 90.1644C90.6783 89.9109 90.2463 89.6878 89.932 89.6188C89.4311 89.5093 88.8977 89.56 88.3826 89.5073C86.8534 89.3511 86.2815 88.2134 87.036 86.8566C87.3544 86.2868 87.9628 85.8467 88.5793 85.8426L88.5813 85.8406Z" fill="#CD8062"/>
<path d="M29.0781 101.848C30.1144 100.402 31.1183 98.9985 32.1242 97.593C31.7835 97.6174 31.4448 97.7208 31.1021 97.735C30.9784 97.7411 30.6843 97.3963 30.9662 97.3335C31.4915 97.2381 32.0248 97.1205 32.5542 97.1205C33.1747 97.1205 33.3289 97.4105 33.0896 97.9763C32.974 98.2461 32.8137 98.4975 32.5988 98.8991C33.118 98.6354 33.4972 98.3921 33.9129 98.2461C34.2942 98.1122 34.7241 97.9986 35.1115 98.0453C35.511 98.098 35.6165 98.4955 35.5881 98.6983C35.5313 99.0877 35.1663 99.2601 34.7566 99.1181C33.6959 98.749 32.6373 99.0269 31.8484 99.9496C31.4083 100.463 31.0088 101.014 30.6133 101.564C30.013 102.397 30.0212 102.404 29.0781 101.846V101.848Z" fill="#CD8062"/>
<path d="M91.3782 85.6581C90.3642 85.6176 89.8592 85.2018 89.7598 84.3338C89.6463 83.3381 90.2506 82.2794 91.0801 82.0949C91.2829 82.0503 91.5384 82.0361 91.729 82.2328C91.8223 82.3281 91.8893 82.535 91.8162 82.752C91.6844 83.0136 91.4066 82.9811 91.22 82.9548C90.6643 82.8736 90.2871 83.2184 90.2344 83.7011C90.1857 84.1554 90.5366 84.5305 91.1145 84.5427C91.6905 84.5569 92.2705 84.4656 92.8485 84.4738C94.3209 84.494 95.0367 85.6216 94.4385 86.9763C94.1485 87.6314 93.7246 88.2094 93.0026 88.4041C92.7552 88.471 92.3658 88.4487 92.1651 88.1769C92.0616 87.9843 92.0819 87.7876 92.1894 87.601C92.2867 87.4326 92.597 87.4043 92.7491 87.4671C93.2257 87.6659 93.607 87.5584 93.8199 87.1345C93.968 86.8405 94.0937 86.4004 93.9741 86.1448C93.8564 85.8934 93.4346 85.7311 93.1162 85.6439C92.8201 85.5608 91.6439 85.6683 91.3843 85.6581H91.3782Z" fill="#CD8062"/>
<path d="M44.1737 105.377C44.1068 105.539 44.0865 105.78 43.9669 105.849C43.2145 106.285 42.4154 106.589 41.5191 106.506C40.7261 106.431 40.2921 106.005 40.1664 105.235C39.8703 103.426 42.1782 100.394 44.5226 100.885C44.8268 100.947 45.1391 101.073 45.3926 101.25C45.7292 101.483 45.7515 101.88 45.4615 102.122C45.3135 102.243 44.8734 102.211 44.7031 102.075C43.5004 101.106 42.6629 101.248 41.9977 102.669C41.7077 103.29 41.4846 103.983 41.4217 104.661C41.3305 105.652 41.9875 106.097 42.9285 105.778C43.3017 105.652 43.6505 105.456 44.0095 105.291C44.0642 105.32 44.119 105.348 44.1717 105.379L44.1737 105.377Z" fill="#CD8062"/>
<path d="M43.7965 39.0681C44.3583 40.2545 44.8552 41.299 45.348 42.3454C47.4754 46.8497 52.2169 57.9065 55.5246 63.009C56.853 65.0593 57.6743 65.1262 57.9542 65.1769C57.9704 65.1769 57.9724 65.2033 57.9542 65.2053C57.5344 65.2661 55.555 65.2864 54.5329 65.1931C51.7261 64.9376 49.9861 63.3294 49.0126 60.7721C48.8707 60.3989 48.6638 60.048 48.5462 59.6668C48.1994 58.5372 47.4085 57.8963 46.3519 57.4542C43.5451 56.282 40.6166 55.8703 37.6009 55.9879C37.4164 55.9961 37.1629 56.2333 37.0757 56.426C36.3517 58.0099 35.6459 59.5999 34.9604 61.202C34.202 62.9745 33.0399 64.3454 31.1802 64.9944C30.586 65.2013 29.935 65.3493 29.3083 65.3513C22.7193 65.3716 16.1302 65.3554 9.54118 65.3473C9.40733 65.3473 9.27551 65.3351 8.95508 65.3169C14.2868 57.3143 19.5454 49.4171 24.8487 41.4592C24.6094 41.4389 24.439 41.4125 24.2687 41.4125C21.7844 41.4085 19.3 41.3476 16.8198 41.4369C15.7611 41.4754 14.6741 41.7188 13.6743 42.0737C12.3033 42.5604 11.409 43.6109 10.9709 45.0184C10.9121 45.209 10.8614 45.4077 10.7681 45.5821C10.7255 45.6612 10.3159 45.5416 10.3301 45.4645C10.6201 43.8725 10.9081 42.2805 11.2569 40.7027C11.3238 40.3661 11.6889 40.3803 11.9768 40.3742C14.8201 40.3458 17.6654 40.3478 20.5087 40.3438C23.5325 40.3397 26.5563 40.3397 29.5821 40.3417C29.7545 40.3417 29.9269 40.36 30.3325 40.3823C25.0292 48.4133 19.8131 56.3104 14.5626 64.2602C14.7897 64.2724 14.9621 64.2907 15.1345 64.2907C18.0386 64.2907 20.9427 64.2947 23.8469 64.2846C25.0454 64.2805 26.1892 64.0351 27.2479 63.443C28.6208 62.6764 30.0425 59.6282 30.1358 59.4376C30.227 59.468 30.3203 59.5005 30.4116 59.5309C30.1662 61.2142 29.9208 62.8994 29.647 64.7794C30.2777 64.4691 30.8152 64.2744 31.2775 63.9662C32.6789 63.0333 33.5124 61.6461 34.1857 60.1474C36.4003 55.2193 38.6007 50.2851 40.8214 45.3611C41.6854 43.4466 43.6424 39.3379 43.7925 39.0661L43.7965 39.0681ZM37.753 54.8847H46.3802C44.9343 51.6906 43.5228 48.5694 42.0443 45.3043C40.574 48.5836 39.1747 51.7108 37.751 54.8847H37.753Z" fill="#314917"/>
<path d="M76.4373 40.4615C76.8855 38.0542 76.9058 35.7341 76.4718 33.3512C74.1639 33.913 72.0872 34.8722 70.2011 36.3304C69.2135 34.0833 68.0981 32.0188 66.2485 30.4045C64.405 31.9985 63.3424 34.0671 62.3993 36.2817C60.4889 34.8114 58.4528 33.7953 56.1469 33.2397C55.6866 35.9126 55.7352 38.5004 56.3011 41.1429C53.4801 39.991 50.6672 39.6847 47.7266 40.2343C47.9882 42.0129 48.8075 44.1322 49.9432 45.9554C51.7421 48.8413 54.1899 50.8956 57.4591 51.9847C61.8416 53.4449 66.717 51.4635 68.8991 48.3789C71.1705 45.1685 71.6147 41.6539 70.6655 37.9102C70.5601 37.4904 70.6311 37.2653 70.9698 37.0138C72.2636 36.0485 73.667 35.2961 75.188 34.7586C75.326 34.71 75.4801 34.7019 75.6423 34.6735C75.9445 36.6893 75.762 38.6342 75.3787 40.5669C75.3361 40.7778 75.1171 41.0192 74.9163 41.1206C73.2472 41.9602 72.144 43.2926 71.3531 44.9596C70.3613 47.0505 69.3311 49.1191 68.3009 51.1917C68.169 51.4533 68.0393 51.715 67.9095 51.9786C68.2583 52.2828 68.9559 52.3822 69.4568 52.4126C69.4568 52.4126 69.4609 52.4126 69.4629 52.4126C69.5035 52.4146 69.5441 52.4167 69.5826 52.4187C69.6049 52.4187 69.6272 52.4187 69.6495 52.4207C69.6718 52.4207 69.6921 52.4207 69.7124 52.4207C69.832 52.4227 69.9639 52.4207 70.1058 52.4187C70.8136 52.3984 71.7729 52.2808 72.8355 51.9076C76.5022 50.6868 79.4307 48.3626 81.1727 44.8116C81.8765 43.3757 82.4605 41.9034 82.7465 40.281C80.6313 39.8409 78.5789 39.9098 76.4373 40.4635V40.4615ZM63.3484 36.6569C64.0866 34.9249 64.9668 33.2741 66.2931 31.7268C66.8894 32.5927 67.4836 33.3695 67.9804 34.2009C68.4408 34.9696 68.818 35.7889 69.1831 36.6102C69.2622 36.7867 69.2115 37.1193 69.0877 37.2754C68.165 38.4213 67.2078 39.5428 66.2424 40.6926C66.281 40.7332 66.2059 40.6785 66.1633 40.6054C65.4657 39.3339 64.6078 38.188 63.537 37.2004C63.4093 37.0828 63.2917 36.7887 63.3484 36.6549V36.6569ZM48.9819 40.9928C49.9107 40.9928 50.8234 40.938 51.7279 41.005C53.2489 41.1165 54.7273 41.4248 55.7778 42.67C56.1855 43.1547 56.5485 43.6982 56.8364 44.264C58.0086 46.5618 59.1443 48.8798 60.2922 51.1897C60.3267 51.2566 60.3348 51.3357 60.3591 51.4148C55.1329 51.5 50.1156 46.4583 48.9839 40.9908L48.9819 40.9928ZM65.1879 50.2568C64.7417 50.1169 64.2752 50.0195 63.8554 49.8228C61.7037 48.825 60.2557 47.1681 59.3025 45.0103C58.8543 43.9943 58.2256 43.0573 57.7389 42.0555C57.4976 41.5627 57.3576 41.011 57.236 40.4716C56.8364 38.6991 56.7837 36.9043 56.9358 35.0994C56.95 34.9452 56.9926 34.7931 57.0413 34.5579C58.8949 35.0852 60.4504 36.0059 61.8578 37.1801C61.9856 37.2876 61.9775 37.6547 61.9187 37.8717C61.2291 40.4006 61.3042 42.9012 62.2148 45.3591C62.7542 46.8153 63.5492 48.1314 64.5774 49.3016C64.8127 49.5693 65.0499 49.839 65.2852 50.1088C65.2345 50.1879 65.2386 50.1797 65.1899 50.2568H65.1879ZM66.8001 49.1962C66.4675 49.5166 66.2262 49.5876 65.8693 49.2164C62.8597 46.1034 61.8457 42.4509 62.8678 38.2408C62.8759 38.2063 62.9185 38.184 62.9793 38.1191C64.4841 39.4292 65.3318 41.1997 66.3438 43.0147C67.3031 41.222 68.163 39.5123 69.7367 38.0947C69.8706 38.981 70.0369 39.7192 70.0855 40.4655C70.3167 43.8685 69.2784 46.8011 66.8001 49.1962ZM74.7845 42.453C74.1862 44.7791 73.0039 46.7199 71.0144 48.1314C72.0223 46.075 72.6266 43.755 74.7845 42.453ZM69.3007 51.4959L69.9395 50.1514C70.0206 49.9688 70.1525 49.8127 70.3208 49.7011C70.9414 49.2894 72.5374 48.2045 73.2716 47.4622C74.6831 46.0365 75.4618 44.2295 75.9627 42.309C76.1007 41.7776 76.3805 41.516 76.8977 41.37C78.3051 40.9685 79.7349 40.9238 81.1809 40.9989C81.2924 41.005 81.4384 41.0131 81.5418 41.0151C80.757 47.7644 72.3488 52.1449 69.3027 51.4939L69.3007 51.4959Z" fill="#CD8062"/>
<path d="M68.8835 52.3456L67.904 51.9704C67.8168 52.1449 67.7316 52.3193 67.6444 52.4937C67.324 53.1426 66.967 53.7754 66.5736 54.5156C66.2025 53.7308 65.8902 53.0676 65.6103 52.4693C64.2637 52.8263 62.9617 53.171 61.6191 53.528C61.6719 53.6436 61.7408 53.8241 61.8321 53.9964C62.4547 55.1179 62.6981 56.424 62.765 57.6915C62.8238 58.813 62.8238 65.2723 62.8238 65.2723H67.1009C67.1009 65.2723 67.0847 60.7275 67.0441 58.452C67.0076 56.5031 68.8835 52.3477 68.8835 52.3477" fill="#314917"/>
<path d="M99.2773 64.1406C99.2063 64.3292 99.1657 64.5725 98.9589 64.6597C98.8453 64.7084 98.7175 64.6942 98.5979 64.6658C98.2714 64.5908 97.9733 64.4123 97.7218 64.1913C97.4703 63.9702 97.2614 63.7045 97.0667 63.4308C96.509 62.6398 96.1196 61.7637 95.7039 60.8957C95.2395 59.9243 94.775 58.9529 94.3127 57.9815C93.8503 57.01 93.3859 56.0386 92.9235 55.0652C92.4611 54.0917 91.9987 53.1203 91.5343 52.1489C91.0699 51.1774 90.6095 50.204 90.1471 49.2326C89.6847 48.2611 89.2223 47.2877 88.7599 46.3163C88.2975 45.3448 87.8351 44.3714 87.3728 43.4C86.9104 42.4285 86.448 41.4551 85.9856 40.4837C85.9471 40.4005 85.9065 40.3174 85.868 40.2362C85.6936 39.8692 85.4847 39.5183 85.2291 39.0417C85.0507 39.3966 84.929 39.6217 84.8235 39.8509C82.8178 44.2152 80.806 48.5755 78.8145 52.9438C77.618 55.5661 76.4701 58.2086 75.2634 60.8247C74.3305 62.8548 72.9353 64.4083 70.6659 64.9842C70.5523 65.0126 70.4631 65.1384 70.2461 65.3168C70.5604 65.3452 70.6923 65.3716 70.8261 65.3675C73.0427 65.3067 74.7382 64.2825 75.7481 62.36C76.7703 60.4151 77.5997 58.3668 78.488 56.355C78.6482 55.9899 78.8368 55.8297 79.2444 55.8541C80.3619 55.923 81.4874 55.8987 82.6008 56.0204C84.8479 56.2658 87.0057 56.8579 88.9485 58.0524C89.3136 58.2775 89.6279 58.673 89.8267 59.0604C90.3621 60.1089 90.7738 61.2243 91.3234 62.2626C92.1447 63.812 93.4913 64.7125 95.2009 65.0065C96.2433 65.185 97.302 65.2377 98.3565 65.3067C98.5695 65.3209 98.7824 65.3371 98.9954 65.3513C99.0887 64.9497 99.1799 64.5462 99.2752 64.1446L99.2773 64.1406ZM79.2302 54.8117C80.662 51.6418 82.0634 48.539 83.5195 45.3124C85.0162 48.5329 86.4581 51.6358 87.9345 54.8117H79.2302Z" fill="#314917"/>
</svg>
