<svg xmlns="http://www.w3.org/2000/svg" version="1.1" xmlns:xlink="http://www.w3.org/1999/xlink" width="100" height="100"><svg xmlns="http://www.w3.org/2000/svg" version="1.1" xmlns:xlink="http://www.w3.org/1999/xlink" width="100" height="100"><svg id="Layer_1" data-name="Layer 1" xmlns="http://www.w3.org/2000/svg" viewBox="0 0 100 100">
  <circle cx="50" cy="50" r="50" fill="#fff"></circle>
  <g>
    <path d="m83.99,69.61c3.53-5.92,5.56-12.83,5.56-20.22,0-21.84-17.7-39.54-39.54-39.54S10.46,27.55,10.46,49.39c0,7.22,1.93,13.99,5.32,19.82" fill="none" stroke="#314917" stroke-miterlimit="10" stroke-width=".85"></path>
    <path d="m87.16,71.33c3.8-6.43,5.99-13.93,5.99-21.94,0-23.83-19.32-43.15-43.15-43.15S6.85,25.56,6.85,49.39c0,7.85,2.1,15.21,5.76,21.55" fill="none" stroke="#314917" stroke-miterlimit="10" stroke-width="1.42"></path>
    <path d="m68.02,78.06c6.52-3.64,11.7-9.19,14.65-15.83" fill="none" stroke="#cd8062" stroke-miterlimit="10" stroke-width=".85"></path>
    <path d="m17.33,62.45c5.4,11.91,17.98,20.26,32.62,20.26,6.7,0,12.97-1.75,18.31-4.78" fill="none" stroke="#314917" stroke-miterlimit="10" stroke-width=".85"></path>
    <path d="m15.89,38.78h15.04c.06,0,.1.07.07.12l-12.84,19.58s0,.1.06.1h6.8s4.45.71,5.96-3.63c.01-.03.06-.02.06.01l-.59,4.47H13.57l13.16-19.64s0-.08-.05-.08h-7.87s-2.73.36-3.88,3.04c-.03.07-.13.04-.12-.03l.65-3.6c.04-.2.21-.35.42-.35h0Z" fill="#314917"></path>
    <path d="m51.42,57.4c-.64-1.42-8.71-18.54-9.19-19.56,0-.02-.04-.02-.05,0l-7.93,17.63s-1.45,3.38-3.74,3.49l-.07.49s3.19.03,4.68-3.59c1.23-2.98,1.55-3.77,1.63-3.96.01-.03.04-.05.08-.05.57,0,5.23-.04,8.11,1.49,3.04,1.61.19,6.61,8.75,6.13.06,0,.08-.09.02-.11-.53-.22-1.78-.83-2.29-1.96h0Zm-14.12-6.59l3.41-7.94s.06-.03.07,0l3.69,8.05s0,.02-.01.02l-7.13-.08s-.04-.03-.03-.05Z" fill="#314917"></path>
    <path d="m57.45,93.92c-.35-1.22-.66-2.34-1-3.51-.42.79-.77,1.52-1.19,2.22-.42.7-.9,1.36-1.68,1.85-.51-2.26-1.45-4.41-.4-6.82-.5.14-.9.21-1.28.36-.42.16-.59.48-.46.95.04.17,0,.42-.12.56-.08.1-.39.14-.48.06-.14-.11-.27-.35-.27-.53,0-.69.44-1.15,1.04-1.36.78-.27,1.61-.43,2.56-.68-1.04,2.17-.38,4.13.18,6.26.35-.55.65-.97.9-1.43.58-1.04,1.06-2.1.95-3.36-.04-.46.16-.96.32-1.42.07-.2.32-.34.59-.47-.35,2.1.3,3.97.98,5.84.04,0,.09,0,.1-.02,1.04-1.26,1.74-2.67,1.84-4.33.04-.68-.19-1.29-.56-1.86-.09-.14-.05-.37-.06-.56.23-.01.57-.13.67-.02.24.26.44.61.53.95.21.87.03,1.74-.21,2.58-.46,1.6-1.29,2.98-2.4,4.21-.15.17-.33.3-.57.52h0Z" fill="#cd8062"></path>
    <path d="m20.96,83.01c.62-.48,1.23-.94,1.82-1.41.36-.29.71-.59,1.04-.91.11-.11.22-.34.17-.46-.05-.13-.27-.23-.43-.25-.71-.11-1.33.12-1.89.53-.59.44-1.17.9-1.8,1.39-.22-.18-.43-.37-.68-.57,1-.92,2.2-1.53,3.15-2.57.05-.06.03-.15-.05-.18l-1.09-.3s-.04-.07,0-.1c.68-.07,1.38-.14,2.02.2.26.14.29.4.11.64-.14.18-.31.34-.52.57.18.02.31.03.44.04.2,0,.4,0,.59,0,1.21.06,1.45.44.87,1.54.39,0,.76,0,1.12,0,.4.01.82,0,1.01.46.19.45-.05.82-.35,1.1-.32.29-.65.57-.98.84-.33.27-.66.54-.99.8-.12.09-.49.35-.57.4-.16.11-.13.12-.11.14.01.01.11.01.16.01h1.31s-.02.09-.04.14c-.09.22-.22.21-.33.22-.44.04-.89.09-1.33.05-.56-.06-.74-.53-.36-.96.31-.35.69-.66,1.06-.96.41-.35.86-.67,1.25-1.04.15-.14.35-.44.29-.58-.11-.21-.31-.28-.6-.24-.57.07-1.12.25-1.61.51-.53.29-.98.72-1.45,1.11-.6.48-.6.49-1.21-.17h0Z" fill="#cd8062"></path>
    <path d="m21.39,72.65c-.36-.29-.63-.55-.94-.76-.33-.22-.65-.24-.96.12-.12.14-.39.21-.59.21-.11,0-.34-.23-.32-.3.06-.21.18-.44.35-.56.42-.3.91-.32,1.36-.08.33.18.66.4.89.69.96,1.21,1.87,2.46,2.8,3.69-.56.54-1.26.8-1.5.56.46-.53.48-1.11.06-1.73-.21-.31-.44-.6-.69-.93-.86.49-1.67.94-2.54,1.43.45.61.87,1.17,1.32,1.78l-.43.29c-.36-.52-.71-1.02-1.05-1.52-.16-.24-.31-.31-.61-.16-.76.39-1.54.74-2.37,1.14.41.63.79,1.27,1.23,1.85.19.24.43.46.73.53.14.03.28.03.41,0,.08-.01.15-.04.22-.06.15-.04.29,0,.37.16.02.07.03.15.01.22-.02.08-.08.13-.14.18-.12.1-.26.19-.4.24-.14.05-.28.07-.43.07-.15,0-.29-.05-.42-.11-.14-.07-.27-.17-.38-.29-.03-.03-.05-.06-.08-.09-.35-.46-.66-.94-.98-1.42-.56-.86-1.11-1.73-1.71-2.68.24.11.42.16.57.26.29.22.57.23.87.07,1.68-.87,3.36-1.74,5.03-2.62.04-.02.08-.05.29-.17h0Z" fill="#cd8062"></path>
    <path d="m28.54,84.04c.53,0,1.02-.06,1.49.02.71.12.99.63.81,1.31-.35,1.35-2.2,2.61-3.59,2.42-.24-.03-.48-.11-.7-.22-.87-.43-1.08-1.17-.49-1.95.58-.78,1.2-1.53,1.86-2.24.63-.69,1.28-1.37,2-1.97.68-.56,1.52-.66,2.39-.42.14.04.29.09.4.18.26.18.47.43.25.74-.22.31-.49.16-.73-.02-1.01-.76-1.12-.75-1.99.22-.58.65-1.15,1.31-1.7,1.93h0Zm.56.4c-.95,0-2.28,1.17-2.41,2.12-.07.52.34.9.89.82.8-.11,2.04-1.28,2.21-2.08.12-.57-.11-.85-.69-.85Z" fill="#cd8062"></path>
    <path d="m74.91,85.83c.13-.32.25-.63.42-1.04.09.13.22.23.2.29-.15.47-.26.96-.51,1.37-.29.49-.66.47-.95-.01-.23-.39-.39-.83-.56-1.26-.21-.52-.4-1.05-.63-1.56-.07-.15-.26-.34-.37-.33-.16.02-.36.18-.43.34-.3.66-.41,1.36-.12,2.06.22.53.44,1.07.72,1.57.25.44.21.72-.26.91-.07.03-.14.08-.26.16-.57-1.27-1.13-2.52-1.69-3.77h-.13c-.13.29-.26.58-.44.97-.09-.13-.24-.26-.22-.32.2-.51.39-1.04.67-1.51.2-.33.49-.28.69.07.13.22.25.45.38.7.17-.55.31-1.08.51-1.58.14-.34.34-.7.81-.69.46,0,.66.36.8.71.31.74.56,1.51.85,2.26.09.23.39.64.47.69,0,0,.02,0,.02,0h0Z" fill="#cd8062"></path>
    <path d="m39.5,87.84c-.76,1.32-1.45,2.54-2.15,3.75-.04.06.02.14.09.12.25-.07.72-.2,1.08-.32-.06.16-.07.36-.15.39-.48.19-.97.42-1.48.5-.62.1-.79-.23-.5-.8.06-.12.13-.23.24-.43-.2.08-.32.14-.45.19-.35.13-.7.29-1.07.37-.8.18-1.29-.28-1.17-1.09.12-.88.64-1.55,1.31-2.08,1-.79,2.09-1.25,3.38-.66.09.04.23-.11.31-.1.17,0,.36.09.56.16h0Zm-1.38.5c-.85-.47-1.62-.25-2.14.33-.34.39-.58.67-.81,1.13-.19.36-.3.82.08,1.13.49.19.76.04,1.09-.15.93-.55,1.31-1.51,1.78-2.44h0Z" fill="#cd8062"></path>
    <path d="m67.27,90.14c.17-.22.29-.37.4-.53.1-.15.17-.31.32-.59.08.22.19.36.15.43-.23.45-.44.93-.75,1.32-.38.48-.81.4-.98-.19-.4-1.34-.74-2.69-1.09-4.05-.15-.57-.28-1.15-.36-1.74-.13-.89.09-1.71.69-2.39.21-.24.53-.46.85-.56.17-.05.4.11.46.27.06.16.05.3-.18.49-.1.08-.28.13-.42.17-.7.2-.89.4-.74,1.09.46,1.99.97,3.96,1.46,5.94.02.09.1.16.2.34h0Z" fill="#cd8062"></path>
    <path d="m47.17,93.23c-.68.54-1.42.97-2.33.91-.58-.03-.95-.36-1.06-.93-.24-1.25.98-3.69,2.77-3.85.58-.05,1.04.1,1.21.47.18.39.05,1.05-.4,1.32-.61.37-1.28.67-1.96.88-.43.14-.69.26-.6.75.08.45.4.75.87.66.43-.08,1.42-.55,1.51-.6.04.02.06.31,0,.37h0Zm-2.27-1.54c.57-.13,1.25-.24,1.66-.69.31-.33.34-.8.1-1.02-.25-.23-.87.03-1.13.41-.3.45-.48.75-.63,1.3Z" fill="#cd8062"></path>
    <path d="m69.99,88.9c.25-.45.44-.77.66-1.16.08.15.18.26.16.32-.23.5-.44,1.03-.75,1.48-.27.39-.63.33-.84-.11-.3-.66-.57-1.33-.8-2.01-.41-1.25-.8-2.5-1.18-3.76-.18-.6-.15-1.22.16-1.77.2-.35.47-.67.78-.93.17-.14.52-.35.73-.21.19.12.18.31.13.42-.09.19-.35.36-.57.44-.69.25-.88.5-.66,1.18.62,1.89,1.26,3.77,1.91,5.65.05.13.14.24.28.49h0Z" fill="#cd8062"></path>
    <path d="m78.45,81.83s-.07-.06-.09-.03c-.03.03-.1.24-.13.31-.17.44-.29.91-.54,1.3-.23.38-.63.36-1,.12-.38-.25-.38-.51-.18-.91.28-.55.52-1.14.63-1.75.14-.74-.21-1.33-.71-1.46-.51-.13-1.11.27-1.4.94,0,.02-.02.03-.02.05-.47,1.14.06,3.22,1.03,4,.6.48,1.17.47,1.71-.09.59-.61.78-1.39.81-2.22,0-.09-.07-.18-.12-.27h0Zm-2.38.81s-.02,0-.03,0h0c-.08,0-.15-.02-.2-.09-.37-.47-.89-1.83-.08-2.31.03-.01.05-.03.08-.03.85-.12,1.03,1.65.34,2.36-.03.03-.07.05-.11.06Z" fill="#cd8062"></path>
    <path d="m64.84,90.43c.06-.06.15-.02.17.05.01.07.02.14,0,.18-.36.7-.78,1.35-1.5,1.72-.78.4-1.49.16-1.8-.67-.48-1.27-.33-2.51.4-3.64.23-.35.64-.62,1.03-.81.58-.27,1.15.06,1.17.7.01.43-.12.92-.35,1.28-.27.43-.69.79-1.1,1.12-.34.27-.46.51-.19.89.26.37.65.54,1.02.3.33-.22.6-.55.88-.84.07-.07.19-.19.29-.29h0Zm-2.54-.3c.02.07.11.1.16.05.43-.35.88-.73,1.04-1.29.12-.4-.08-.85-.39-.9-.39-.04-.6.22-.75.56-.19.46-.19,1.11-.07,1.58h0Z" fill="#cd8062"></path>
    <path d="m79.18,76.31c.12,0,.26.11.33.24.06.12.05.28-.03.39-.07.1-.24.16-.42.12-.45-.08-.82.13-.91.54-.09.38.15.7.63.77.42.06.85.05,1.28.06,1.32.05,1.91,1.03,1.24,2.17-.24.4-.6.71-.99,1-.15.12-.49.13-.7.08-.29-.06-.49-.32-.37-.61.11-.28.41-.32.66-.16.38.26.7.1.88-.21.15-.24.27-.61.19-.85-.07-.21-.43-.39-.69-.45-.41-.09-.85-.05-1.28-.09-1.26-.13-1.73-1.07-1.11-2.19.26-.47.76-.83,1.27-.84h0Z" fill="#cd8062"></path>
    <path d="m30.12,89.51c.85-1.19,1.68-2.35,2.51-3.51-.28.02-.56.11-.84.12-.1,0-.34-.28-.11-.33.43-.08.87-.18,1.31-.18.51,0,.64.24.44.71-.1.22-.23.43-.4.76.43-.22.74-.42,1.08-.54.31-.11.67-.2.99-.17.33.04.42.37.39.54-.05.32-.35.46-.69.35-.87-.3-1.75-.08-2.4.69-.36.42-.69.88-1.02,1.33-.49.69-.49.69-1.27.23h0Z" fill="#cd8062"></path>
    <path d="m81.49,76.16c-.84-.03-1.25-.38-1.33-1.09-.09-.82.4-1.69,1.09-1.85.17-.04.38-.05.54.11.08.08.13.25.07.43-.11.22-.34.19-.49.17-.46-.07-.77.22-.81.62-.04.37.25.68.73.69.47.01.95-.06,1.43-.06,1.21.02,1.8.95,1.31,2.06-.24.54-.59,1.02-1.18,1.18-.2.06-.53.04-.69-.19-.09-.16-.07-.32.02-.47.08-.14.34-.16.46-.11.39.16.71.08.88-.27.12-.24.23-.61.13-.82-.1-.21-.44-.34-.71-.41-.24-.07-1.21.02-1.43.01h0Z" fill="#cd8062"></path>
    <path d="m42.56,92.42c-.06.13-.07.33-.17.39-.62.36-1.28.61-2.02.54-.65-.06-1.01-.41-1.12-1.05-.24-1.49,1.66-3.99,3.59-3.59.25.05.51.16.72.3.28.19.3.52.06.72-.12.1-.48.07-.63-.04-.99-.8-1.68-.68-2.23.49-.24.51-.42,1.08-.47,1.64-.08.82.47,1.18,1.24.92.31-.1.6-.27.89-.4.05.02.09.05.13.07h0Z" fill="#cd8062"></path>
    <path d="m42.25,37.74c.46.98.87,1.84,1.28,2.7,1.75,3.71,5.66,12.83,8.39,17.04,1.1,1.69,1.77,1.75,2,1.79.01,0,.02.02,0,.02-.35.05-1.98.07-2.82-.01-2.31-.21-3.75-1.54-4.55-3.65-.12-.31-.29-.6-.38-.91-.29-.93-.94-1.46-1.81-1.82-2.31-.97-4.73-1.31-7.22-1.21-.15,0-.36.2-.43.36-.6,1.31-1.18,2.62-1.74,3.94-.63,1.46-1.58,2.59-3.12,3.13-.49.17-1.03.29-1.54.29-5.43.02-10.87,0-16.3,0-.11,0-.22-.01-.48-.03,4.4-6.6,8.73-13.11,13.11-19.67-.2-.02-.34-.04-.48-.04-2.05,0-4.1-.05-6.14.02-.87.03-1.77.23-2.59.53-1.13.4-1.87,1.27-2.23,2.43-.05.16-.09.32-.17.46-.04.07-.37-.03-.36-.1.24-1.31.48-2.63.76-3.93.06-.28.36-.27.59-.27,2.34-.02,4.69-.02,7.04-.03,2.49,0,4.99,0,7.48,0,.14,0,.28.02.62.03-4.37,6.62-8.67,13.13-13,19.69.19.01.33.03.47.03,2.39,0,4.79,0,7.18,0,.99,0,1.93-.21,2.8-.69,1.13-.63,2.3-3.15,2.38-3.3.08.03.15.05.23.08-.2,1.39-.4,2.78-.63,4.33.52-.26.96-.42,1.34-.67,1.16-.77,1.84-1.91,2.4-3.15,1.83-4.06,3.64-8.13,5.47-12.19.71-1.58,2.33-4.97,2.45-5.19h0Zm-4.98,13.04h7.11c-1.19-2.63-2.36-5.21-3.58-7.9-1.21,2.7-2.37,5.28-3.54,7.9h0Z" fill="#314917"></path>
    <path d="m69.17,38.89c.37-1.99.39-3.9.03-5.86-1.9.46-3.62,1.25-5.17,2.46-.81-1.85-1.73-3.56-3.26-4.89-1.52,1.31-2.4,3.02-3.17,4.85-1.58-1.21-3.25-2.05-5.16-2.51-.38,2.2-.34,4.34.13,6.52-2.33-.95-4.65-1.2-7.07-.75.22,1.47.89,3.21,1.83,4.72,1.48,2.38,3.5,4.07,6.2,4.97,3.61,1.2,7.63-.43,9.43-2.97,1.87-2.65,2.24-5.55,1.46-8.63-.09-.35-.03-.53.25-.74,1.07-.8,2.22-1.42,3.48-1.86.11-.04.24-.05.37-.07.25,1.66.1,3.27-.22,4.86-.04.17-.22.37-.38.46-1.38.69-2.29,1.79-2.94,3.17-.82,1.72-1.67,3.43-2.52,5.14-.11.22-.22.43-.32.65.29.25.86.33,1.28.36h0s.07,0,.1,0c.02,0,.04,0,.06,0h.05c.1,0,.21,0,.32,0,.58-.02,1.37-.11,2.25-.42,3.02-1.01,5.44-2.92,6.87-5.85.58-1.18,1.06-2.4,1.3-3.74-1.74-.36-3.44-.31-5.2.15h0Zm-10.79-3.14c.61-1.43,1.33-2.79,2.43-4.07.49.71.98,1.35,1.39,2.04.38.63.69,1.31.99,1.99.07.15.02.42-.08.55-.76.94-1.55,1.87-2.35,2.82.03.03-.03-.01-.07-.07-.58-1.05-1.28-1.99-2.17-2.81-.11-.1-.2-.34-.16-.45h0Zm-11.85,3.58c.77,0,1.52-.05,2.26.01,1.25.09,2.47.35,3.34,1.37.34.4.64.85.87,1.31.97,1.89,1.9,3.81,2.85,5.71.03.06.04.12.06.19-4.31.07-8.45-4.09-9.38-8.6h0Zm13.36,7.64c-.37-.12-.75-.2-1.1-.36-1.77-.82-2.97-2.19-3.75-3.97-.37-.84-.89-1.61-1.29-2.44-.2-.41-.31-.86-.41-1.31-.33-1.46-.37-2.94-.25-4.43.01-.13.05-.25.09-.45,1.53.43,2.81,1.19,3.97,2.16.11.09.1.39.05.57-.57,2.09-.51,4.15.24,6.17.44,1.2,1.1,2.29,1.95,3.25.19.22.39.44.58.67-.04.07-.04.06-.08.12h0Zm1.33-.87c-.27.26-.47.32-.77.02-2.48-2.57-3.32-5.58-2.47-9.05,0-.03.04-.05.09-.1,1.24,1.08,1.94,2.54,2.77,4.04.79-1.48,1.5-2.89,2.8-4.06.11.73.25,1.34.29,1.95.19,2.81-.67,5.22-2.71,7.2Zm6.58-5.56c-.49,1.92-1.47,3.52-3.11,4.68.83-1.7,1.33-3.61,3.11-4.68Zm-4.52,7.46l.53-1.11c.07-.15.18-.28.31-.37.51-.34,1.83-1.23,2.43-1.85,1.16-1.18,1.81-2.67,2.22-4.25.11-.44.34-.65.77-.77,1.16-.33,2.34-.37,3.53-.31.09,0,.21.01.3.01-.65,5.57-7.58,9.18-10.09,8.64h0Z" fill="#cd8062"></path>
    <path d="m62.94,48.69l-.81-.31c-.07.14-.14.29-.21.43-.26.54-.56,1.06-.88,1.67-.31-.65-.56-1.19-.79-1.69-1.11.29-2.18.58-3.29.87.04.1.1.24.18.39.51.92.71,2,.77,3.05.05.92.05,6.25.05,6.25h3.53s-.01-3.75-.05-5.62c-.03-1.61,1.52-5.03,1.52-5.03" fill="#314917"></path>
    <path d="m88,58.42c-.06.16-.09.36-.26.43-.09.04-.2.03-.3,0-.27-.06-.52-.21-.72-.39-.21-.18-.38-.4-.54-.63-.46-.65-.78-1.37-1.12-2.09-.38-.8-.77-1.6-1.15-2.4-.38-.8-.76-1.6-1.15-2.4-.38-.8-.76-1.6-1.15-2.4-.38-.8-.76-1.6-1.14-2.4-.38-.8-.76-1.6-1.14-2.4-.38-.8-.76-1.6-1.14-2.4-.38-.8-.76-1.6-1.14-2.4-.03-.07-.07-.14-.1-.2-.14-.3-.32-.59-.53-.98-.15.29-.25.48-.33.67-1.65,3.6-3.31,7.19-4.95,10.8-.99,2.16-1.93,4.34-2.93,6.5-.77,1.67-1.92,2.95-3.79,3.43-.09.02-.17.13-.35.27.26.02.37.05.48.04,1.83-.05,3.23-.89,4.06-2.48.84-1.6,1.53-3.29,2.26-4.95.13-.3.29-.43.62-.41.92.06,1.85.04,2.77.14,1.85.2,3.63.69,5.23,1.68.3.19.56.51.72.83.44.86.78,1.78,1.23,2.64.68,1.28,1.79,2.02,3.2,2.26.86.15,1.73.19,2.6.25.18.01.35.03.53.04.08-.33.15-.66.23-1h0Zm-16.53-7.69c1.18-2.61,2.34-5.17,3.54-7.83,1.23,2.66,2.42,5.21,3.64,7.83h-7.18Z" fill="#314917"></path>
  </g>
</svg></svg><style>@media (prefers-color-scheme: light) { :root { filter: none; } }
@media (prefers-color-scheme: dark) { :root { filter: none; } }
</style></svg>